<?xml version="1.0" encoding="UTF-8" standalone="no"?>
<!DOCTYPE svg PUBLIC "-//W3C//DTD SVG 1.1//EN" "http://www.w3.org/Graphics/SVG/1.1/DTD/svg11.dtd">
<svg width="100%" height="100%" viewBox="0 0 54 54" version="1.1" xmlns="http://www.w3.org/2000/svg" xmlns:xlink="http://www.w3.org/1999/xlink" xml:space="preserve" xmlns:serif="http://www.serif.com/" style="fill-rule:evenodd;clip-rule:evenodd;stroke-linejoin:round;stroke-miterlimit:1.41421;">
    <g id="Prancheta5">
        <rect x="-0.003" y="0" width="53.557" height="53.55" style="fill:none;"/>
        <path d="M-0.003,0L53.545,0L53.545,53.547L50.733,53.547L45.129,53.547L42.319,53.547L11.228,53.547L8.416,53.547L-0.003,53.547L-0.003,0ZM25.365,2.811L2.809,2.811L2.809,50.737L8.416,50.737L8.416,8.401L11.228,8.401L11.228,8.42L19.764,8.42L19.764,42.316L33.814,42.316L33.814,8.401L36.626,8.401L36.626,8.42L42.319,8.42L42.319,8.401L45.129,8.401L45.129,50.737L50.733,50.737L50.733,2.811L28.177,2.811L28.177,36.634L25.365,36.634L25.365,2.811ZM16.954,42.316L16.954,11.231L11.228,11.231L11.228,50.737L42.319,50.737L42.319,11.231L36.626,11.231L36.626,45.127L16.954,45.127L16.954,42.316Z" style="fill:rgb(181,255,0);"/>
    </g>
</svg>
