<?xml version="1.0" encoding="UTF-8" standalone="no"?>
<!DOCTYPE svg PUBLIC "-//W3C//DTD SVG 1.1//EN" "http://www.w3.org/Graphics/SVG/1.1/DTD/svg11.dtd">
<svg width="100%" height="100%" viewBox="0 0 705 160" version="1.1" xmlns="http://www.w3.org/2000/svg" xmlns:xlink="http://www.w3.org/1999/xlink" xml:space="preserve" xmlns:serif="http://www.serif.com/" style="fill-rule:evenodd;clip-rule:evenodd;stroke-linejoin:round;stroke-miterlimit:1.41421;">
    <g id="Prancheta2" transform="matrix(0.960941,0,0,0.502602,14.4496,212.634)">
        <rect x="-15.037" y="-423.066" width="732.933" height="317.179" style="fill:none;"/>
        <clipPath id="_clip1">
            <rect x="-15.037" y="-423.066" width="732.933" height="317.179"/>
        </clipPath>
        <g clip-path="url(#_clip1)">
            <g transform="matrix(0.660156,0,0,0.517688,-268.409,-294.115)">
                <g transform="matrix(1.57637,0,0,3.84332,-220.158,-379.14)">
                    <path d="M399.801,143.68L383.137,143.68L383.137,133.344L428.805,133.344L428.805,143.68L412.036,143.68L412.036,189.172L399.801,189.172L399.801,143.68Z" style="fill:rgb(181,255,0);fill-rule:nonzero;"/>
                </g>
                <g transform="matrix(1.57637,0,0,3.84332,-220.158,-379.14)">
                    <path d="M435.063,133.344L446.735,133.344L446.735,152.68L447.192,152.68C448.504,151.016 450.233,149.645 452.377,148.567C454.522,147.489 456.989,146.949 459.778,146.949C462.614,146.949 465.104,147.571 467.249,148.813C469.393,150.055 471.051,151.836 472.223,154.157C473.395,156.477 473.981,159.196 473.981,162.313L473.981,189.172L462.239,189.172L462.239,164.949C462.239,161.551 461.641,159.125 460.446,157.672C459.25,156.219 457.516,155.492 455.243,155.492C449.711,155.492 446.946,159.266 446.946,166.813L446.946,189.172L435.063,189.172L435.063,133.344Z" style="fill:rgb(181,255,0);fill-rule:nonzero;"/>
                </g>
                <g transform="matrix(1.57637,0,0,3.84332,-220.158,-379.14)">
                    <path d="M520.282,169.907L491.805,169.907C491.899,173.563 492.69,176.44 494.178,178.537C495.666,180.635 497.981,181.684 501.122,181.684C503.09,181.684 504.76,181.209 506.131,180.26C507.502,179.311 508.34,177.77 508.645,175.637L520.282,175.637C519.93,179.176 518.799,182.012 516.889,184.145C514.979,186.278 512.688,187.783 510.016,188.662C507.344,189.541 504.543,189.981 501.614,189.981C497.395,189.981 493.668,189.143 490.434,187.467C487.2,185.791 484.68,183.336 482.875,180.102C481.071,176.867 480.168,172.965 480.168,168.395C480.168,164.012 480.983,160.209 482.612,156.987C484.241,153.764 486.602,151.285 489.696,149.551C492.79,147.817 496.481,146.949 500.77,146.949C504.754,146.949 508.211,147.735 511.141,149.305C514.071,150.875 516.327,153.172 517.909,156.196C519.491,159.219 520.282,162.852 520.282,167.094L520.282,169.907ZM500.454,154.965C495.579,154.965 492.766,157.778 492.016,163.403L508.715,163.403C508.411,157.778 505.657,154.965 500.454,154.965Z" style="fill:rgb(181,255,0);fill-rule:nonzero;"/>
                </g>
            </g>
            <g transform="matrix(0.660156,0,0,0.517688,108.154,-294.115)">
                <g transform="matrix(1.57637,0,0,3.84332,-220.158,-379.14)">
                    <path d="M404.547,190.051C400.586,190.051 397.059,189.225 393.965,187.573C390.872,185.92 388.44,183.483 386.67,180.26C384.901,177.037 384.016,173.153 384.016,168.606C384.016,163.989 384.901,160.057 386.67,156.811C388.44,153.565 390.872,151.11 393.965,149.446C397.059,147.782 400.586,146.949 404.547,146.949C408.508,146.949 412.03,147.782 415.112,149.446C418.194,151.11 420.614,153.565 422.372,156.811C424.129,160.057 425.008,163.989 425.008,168.606C425.008,173.153 424.129,177.037 422.372,180.26C420.614,183.483 418.194,185.92 415.112,187.573C412.03,189.225 408.508,190.051 404.547,190.051ZM404.618,181.719C407.36,181.719 409.522,180.688 411.104,178.625C412.686,176.563 413.477,173.223 413.477,168.606C413.477,159.512 410.524,154.965 404.618,154.965C398.688,154.965 395.723,159.512 395.723,168.606C395.723,173.223 396.52,176.563 398.114,178.625C399.707,180.688 401.875,181.719 404.618,181.719Z" style="fill:rgb(181,255,0);fill-rule:nonzero;"/>
                </g>
                <g transform="matrix(1.57637,0,0,3.84332,-220.158,-379.14)">
                    <path d="M433.797,154.824L427.223,154.824L427.223,147.758L433.903,147.758L433.903,145.016C433.903,141.43 435.04,138.588 437.313,136.49C439.586,134.393 442.973,133.344 447.473,133.344L453.977,133.344L453.977,141.324L450.11,141.324C448.422,141.324 447.256,141.711 446.612,142.485C445.967,143.258 445.645,144.535 445.645,146.317L445.645,147.758L453.977,147.758L453.977,154.824L445.645,154.824L445.645,189.172L433.797,189.172L433.797,154.824Z" style="fill:rgb(181,255,0);fill-rule:nonzero;"/>
                </g>
            </g>
            <g transform="matrix(10.9923,0,0,3.87125,-3783.74,-933.906)">
                <g transform="matrix(0.261178,0,0,1.4179,282.213,-55.7242)">
                    <rect x="389.008" y="133.344" width="9.914" height="22.781" style="fill:none;stroke:rgb(58,60,255);stroke-width:0.54px;"/>
                </g>
                <g transform="matrix(0.261178,0,0,1.4179,281.267,-55.7242)">
                    <path d="M427.258,149.34L414.532,149.34L414.532,142.449C418.821,142.449 422.184,141.764 424.622,140.393C427.059,139.022 428.618,136.672 429.297,133.344L439.282,133.344L439.282,189.172L427.258,189.172L427.258,149.34Z" style="fill:none;stroke:rgb(58,60,255);stroke-width:0.54px;"/>
                </g>
                <g transform="matrix(0.261178,0,0,1.4179,280.32,-55.7242)">
                    <path d="M472.895,189.981C468.794,189.981 465.137,189.313 461.927,187.977C458.716,186.641 456.208,184.725 454.403,182.229C452.598,179.733 451.696,176.821 451.696,173.492C451.696,171.219 452.136,169.086 453.014,167.094C453.893,165.102 455.177,163.408 456.864,162.014C458.552,160.619 460.544,159.664 462.841,159.149L462.841,158.903C461.247,158.434 459.817,157.631 458.552,156.494C457.286,155.358 456.296,153.998 455.581,152.416C454.866,150.834 454.509,149.176 454.509,147.442C454.509,144.606 455.294,142.057 456.864,139.795C458.434,137.533 460.614,135.758 463.403,134.469C466.192,133.18 469.345,132.535 472.86,132.535C476.376,132.535 479.528,133.18 482.317,134.469C485.106,135.758 487.286,137.533 488.856,139.795C490.427,142.057 491.212,144.606 491.212,147.442C491.212,149.199 490.854,150.869 490.139,152.451C489.425,154.033 488.434,155.393 487.169,156.53C485.903,157.666 484.473,158.457 482.88,158.903L482.88,159.149C485.177,159.688 487.169,160.66 488.856,162.067C490.544,163.473 491.827,165.166 492.706,167.147C493.585,169.127 494.024,171.242 494.024,173.492C494.024,176.821 493.128,179.733 491.335,182.229C489.542,184.725 487.046,186.641 483.846,187.977C480.647,189.313 476.997,189.981 472.895,189.981ZM472.93,155.176C474.29,155.176 475.514,154.877 476.604,154.28C477.694,153.682 478.55,152.862 479.171,151.819C479.792,150.776 480.102,149.621 480.102,148.356C480.102,147.067 479.792,145.907 479.171,144.875C478.55,143.844 477.694,143.03 476.604,142.432C475.514,141.834 474.29,141.535 472.93,141.535C471.548,141.535 470.311,141.828 469.221,142.414C468.132,143 467.276,143.809 466.655,144.84C466.034,145.871 465.723,147.02 465.723,148.285C465.723,149.574 466.034,150.746 466.655,151.801C467.276,152.856 468.137,153.682 469.239,154.28C470.341,154.877 471.571,155.176 472.93,155.176ZM472.825,180.102C474.606,180.102 476.182,179.75 477.554,179.047C478.925,178.344 479.997,177.36 480.77,176.094C481.544,174.828 481.93,173.387 481.93,171.77C481.93,170.223 481.544,168.834 480.77,167.604C479.997,166.373 478.919,165.407 477.536,164.703C476.153,164 474.583,163.649 472.825,163.649C471.067,163.649 469.497,164 468.114,164.703C466.731,165.407 465.653,166.373 464.88,167.604C464.106,168.834 463.72,170.223 463.72,171.77C463.72,173.387 464.106,174.828 464.88,176.094C465.653,177.36 466.731,178.344 468.114,179.047C469.497,179.75 471.067,180.102 472.825,180.102Z" style="fill:none;stroke:rgb(58,60,255);stroke-width:0.54px;"/>
                </g>
            </g>
            <g transform="matrix(10.9923,0,0,3.87125,-4170.97,-934.836)">
                <g transform="matrix(0.261178,0,0,1.4179,282.213,-55.7242)">
                    <path d="M427.258,149.34L414.532,149.34L414.532,142.449C418.821,142.449 422.184,141.764 424.622,140.393C427.059,139.022 428.618,136.672 429.297,133.344L439.282,133.344L439.282,189.172L427.258,189.172L427.258,149.34Z" style="fill:rgb(181,255,0);fill-rule:nonzero;"/>
                </g>
                <g transform="matrix(0.261178,0,0,1.4179,281.267,-55.7242)">
                    <path d="M472.895,189.981C468.794,189.981 465.137,189.313 461.927,187.977C458.716,186.641 456.208,184.725 454.403,182.229C452.598,179.733 451.696,176.821 451.696,173.492C451.696,171.219 452.136,169.086 453.014,167.094C453.893,165.102 455.177,163.408 456.864,162.014C458.552,160.619 460.544,159.664 462.841,159.149L462.841,158.903C461.247,158.434 459.817,157.631 458.552,156.494C457.286,155.358 456.296,153.998 455.581,152.416C454.866,150.834 454.509,149.176 454.509,147.442C454.509,144.606 455.294,142.057 456.864,139.795C458.434,137.533 460.614,135.758 463.403,134.469C466.192,133.18 469.345,132.535 472.86,132.535C476.376,132.535 479.528,133.18 482.317,134.469C485.106,135.758 487.286,137.533 488.856,139.795C490.427,142.057 491.212,144.606 491.212,147.442C491.212,149.199 490.854,150.869 490.139,152.451C489.425,154.033 488.434,155.393 487.169,156.53C485.903,157.666 484.473,158.457 482.88,158.903L482.88,159.149C485.177,159.688 487.169,160.66 488.856,162.067C490.544,163.473 491.827,165.166 492.706,167.147C493.585,169.127 494.024,171.242 494.024,173.492C494.024,176.821 493.128,179.733 491.335,182.229C489.542,184.725 487.046,186.641 483.846,187.977C480.647,189.313 476.997,189.981 472.895,189.981ZM472.93,155.176C474.29,155.176 475.514,154.877 476.604,154.28C477.694,153.682 478.55,152.862 479.171,151.819C479.792,150.776 480.102,149.621 480.102,148.356C480.102,147.067 479.792,145.907 479.171,144.875C478.55,143.844 477.694,143.03 476.604,142.432C475.514,141.834 474.29,141.535 472.93,141.535C471.548,141.535 470.311,141.828 469.221,142.414C468.132,143 467.276,143.809 466.655,144.84C466.034,145.871 465.723,147.02 465.723,148.285C465.723,149.574 466.034,150.746 466.655,151.801C467.276,152.856 468.137,153.682 469.239,154.28C470.341,154.877 471.571,155.176 472.93,155.176ZM472.825,180.102C474.606,180.102 476.182,179.75 477.554,179.047C478.925,178.344 479.997,177.36 480.77,176.094C481.544,174.828 481.93,173.387 481.93,171.77C481.93,170.223 481.544,168.834 480.77,167.604C479.997,166.373 478.919,165.407 477.536,164.703C476.153,164 474.583,163.649 472.825,163.649C471.067,163.649 469.497,164 468.114,164.703C466.731,165.407 465.653,166.373 464.88,167.604C464.106,168.834 463.72,170.223 463.72,171.77C463.72,173.387 464.106,174.828 464.88,176.094C465.653,177.36 466.731,178.344 468.114,179.047C469.497,179.75 471.067,180.102 472.825,180.102Z" style="fill:rgb(181,255,0);fill-rule:nonzero;"/>
                </g>
            </g>
        </g>
    </g>
</svg>
