<?xml version="1.0" encoding="UTF-8" standalone="no"?>
<!DOCTYPE svg PUBLIC "-//W3C//DTD SVG 1.1//EN" "http://www.w3.org/Graphics/SVG/1.1/DTD/svg11.dtd">
<svg width="100%" height="100%" viewBox="0 0 1164 317" version="1.1" xmlns="http://www.w3.org/2000/svg" xmlns:xlink="http://www.w3.org/1999/xlink" xml:space="preserve" xmlns:serif="http://www.serif.com/" style="fill-rule:evenodd;clip-rule:evenodd;stroke-linejoin:round;stroke-miterlimit:2;">
    <g transform="matrix(1,0,0,1,-14785,-13142)">
        <g id="Artboard1" transform="matrix(0.358528,0,0,0.128766,9483.84,11449.7)">
            <rect x="14785.9" y="13142.6" width="3245.62" height="2458.6" style="fill:none;"/>
            <clipPath id="_clip1">
                <rect x="14785.9" y="13142.6" width="3245.62" height="2458.6"/>
            </clipPath>
            <g clip-path="url(#_clip1)">
                <g transform="matrix(10.5886,0,0,4.87946,-86542.6,-52525.7)">
                    <g transform="matrix(64,0,0,386.697,9569.2,13705.5)">
                        <path d="M0.352,-0.64L0.362,-0.632L0.397,-0.523L0.431,-0.632L0.431,-0.632L0.431,-0.633L0.432,-0.633L0.432,-0.634L0.432,-0.634L0.432,-0.634L0.432,-0.634L0.432,-0.635L0.432,-0.635L0.432,-0.635L0.433,-0.635L0.433,-0.635L0.433,-0.636L0.433,-0.636L0.433,-0.636L0.433,-0.636L0.433,-0.636L0.433,-0.636L0.434,-0.637L0.434,-0.637L0.434,-0.637L0.434,-0.637L0.434,-0.637L0.434,-0.637L0.435,-0.637L0.435,-0.638L0.435,-0.638L0.435,-0.638L0.435,-0.638L0.435,-0.638L0.436,-0.638L0.436,-0.638L0.436,-0.638L0.436,-0.639L0.436,-0.639L0.436,-0.639L0.437,-0.639L0.437,-0.639L0.437,-0.639L0.437,-0.639L0.437,-0.639L0.438,-0.639L0.438,-0.639L0.438,-0.639L0.438,-0.64L0.438,-0.64L0.439,-0.64L0.439,-0.64L0.439,-0.64L0.439,-0.64L0.44,-0.64L0.44,-0.64L0.44,-0.64L0.44,-0.64L0.441,-0.64L0.441,-0.64L0.441,-0.64L0.441,-0.64L0.442,-0.64L0.442,-0.64L0.684,-0.64L0.694,-0.632L0.694,-0.632L0.786,-0.312L0.786,-0.01L0.786,-0.01L0.786,-0.009L0.786,-0.009L0.786,-0.009L0.786,-0.009L0.786,-0.008L0.786,-0.008L0.786,-0.008L0.786,-0.008L0.786,-0.007L0.786,-0.007L0.786,-0.007L0.786,-0.007L0.785,-0.006L0.785,-0.006L0.785,-0.006L0.785,-0.006L0.785,-0.005L0.785,-0.005L0.785,-0.005L0.785,-0.005L0.785,-0.005L0.785,-0.004L0.784,-0.004L0.784,-0.004L0.784,-0.004L0.784,-0.004L0.784,-0.003L0.784,-0.003L0.784,-0.003L0.783,-0.003L0.783,-0.003L0.783,-0.003L0.783,-0.002L0.783,-0.002L0.783,-0.002L0.782,-0.002L0.782,-0.002L0.782,-0.002L0.782,-0.002L0.782,-0.001L0.781,-0.001L0.781,-0.001L0.781,-0.001L0.781,-0.001L0.781,-0.001L0.78,-0.001L0.78,-0.001L0.78,-0.001L0.78,-0.001L0.779,0L0.779,0L0.779,0L0.779,0L0.778,0L0.778,0L0.778,0L0.778,0L0.777,0L0.777,0L0.777,0L0.777,0L0.776,0L0.776,0L0.495,0L0.495,0L0.495,0L0.494,0L0.494,0L0.494,0L0.494,0L0.493,0L0.493,0L0.493,0L0.493,0L0.493,0L0.492,0L0.492,0L0.492,-0.001L0.492,-0.001L0.491,-0.001L0.491,-0.001L0.491,-0.001L0.491,-0.001L0.491,-0.001L0.491,-0.001L0.49,-0.001L0.49,-0.001L0.49,-0.002L0.49,-0.002L0.49,-0.002L0.489,-0.002L0.489,-0.002L0.489,-0.002L0.489,-0.002L0.489,-0.003L0.489,-0.003L0.488,-0.003L0.488,-0.003L0.488,-0.003L0.488,-0.003L0.488,-0.004L0.488,-0.004L0.488,-0.004L0.488,-0.004L0.487,-0.004L0.487,-0.005L0.487,-0.005L0.487,-0.005L0.487,-0.005L0.487,-0.005L0.487,-0.006L0.487,-0.006L0.487,-0.006L0.487,-0.006L0.486,-0.007L0.486,-0.007L0.486,-0.007L0.486,-0.007L0.486,-0.008L0.486,-0.008L0.486,-0.008L0.486,-0.008L0.486,-0.009L0.486,-0.009L0.486,-0.009L0.486,-0.009L0.486,-0.01L0.486,-0.01L0.486,-0.101L0.483,-0.278L0.472,-0.278L0.47,-0.011L0.47,-0.011L0.47,-0.011L0.47,-0.01L0.47,-0.01L0.47,-0.01L0.47,-0.01L0.47,-0.009L0.47,-0.009L0.47,-0.009L0.47,-0.009L0.47,-0.009L0.47,-0.008L0.47,-0.008L0.469,-0.008L0.469,-0.008L0.469,-0.007L0.469,-0.007L0.469,-0.007L0.469,-0.007L0.469,-0.007L0.469,-0.007L0.469,-0.006L0.469,-0.006L0.468,-0.006L0.468,-0.006L0.468,-0.006L0.468,-0.005L0.468,-0.005L0.468,-0.005L0.468,-0.005L0.467,-0.005L0.467,-0.005L0.467,-0.004L0.467,-0.004L0.467,-0.004L0.467,-0.004L0.466,-0.004L0.466,-0.004L0.466,-0.004L0.466,-0.004L0.466,-0.003L0.465,-0.003L0.465,-0.003L0.465,-0.003L0.465,-0.003L0.465,-0.003L0.464,-0.003L0.464,-0.003L0.464,-0.003L0.464,-0.003L0.463,-0.002L0.463,-0.002L0.463,-0.002L0.463,-0.002L0.462,-0.002L0.462,-0.002L0.462,-0.002L0.462,-0.002L0.461,-0.002L0.461,-0.002L0.461,-0.002L0.461,-0.002L0.46,-0.002L0.46,-0.002L0.334,-0.002L0.334,-0.002L0.333,-0.002L0.333,-0.002L0.333,-0.002L0.333,-0.002L0.332,-0.002L0.332,-0.002L0.332,-0.002L0.332,-0.002L0.331,-0.002L0.331,-0.002L0.331,-0.002L0.331,-0.002L0.33,-0.003L0.33,-0.003L0.33,-0.003L0.33,-0.003L0.329,-0.003L0.329,-0.003L0.329,-0.003L0.329,-0.003L0.329,-0.003L0.328,-0.003L0.328,-0.004L0.328,-0.004L0.328,-0.004L0.328,-0.004L0.327,-0.004L0.327,-0.004L0.327,-0.004L0.327,-0.004L0.327,-0.005L0.327,-0.005L0.326,-0.005L0.326,-0.005L0.326,-0.005L0.326,-0.005L0.326,-0.006L0.326,-0.006L0.326,-0.006L0.325,-0.006L0.325,-0.006L0.325,-0.007L0.325,-0.007L0.325,-0.007L0.325,-0.007L0.325,-0.007L0.325,-0.007L0.325,-0.008L0.325,-0.008L0.324,-0.008L0.324,-0.008L0.324,-0.009L0.324,-0.009L0.324,-0.009L0.324,-0.009L0.324,-0.009L0.324,-0.01L0.324,-0.01L0.324,-0.01L0.324,-0.01L0.324,-0.011L0.324,-0.011L0.324,-0.011L0.322,-0.278L0.31,-0.278L0.308,-0.101L0.308,-0.01L0.308,-0.01L0.308,-0.009L0.308,-0.009L0.308,-0.009L0.308,-0.009L0.308,-0.008L0.308,-0.008L0.308,-0.008L0.308,-0.008L0.308,-0.007L0.308,-0.007L0.308,-0.007L0.308,-0.007L0.307,-0.006L0.307,-0.006L0.307,-0.006L0.307,-0.006L0.307,-0.005L0.307,-0.005L0.307,-0.005L0.307,-0.005L0.307,-0.005L0.307,-0.004L0.306,-0.004L0.306,-0.004L0.306,-0.004L0.306,-0.004L0.306,-0.003L0.306,-0.003L0.306,-0.003L0.305,-0.003L0.305,-0.003L0.305,-0.003L0.305,-0.002L0.305,-0.002L0.305,-0.002L0.304,-0.002L0.304,-0.002L0.304,-0.002L0.304,-0.002L0.304,-0.001L0.303,-0.001L0.303,-0.001L0.303,-0.001L0.303,-0.001L0.303,-0.001L0.302,-0.001L0.302,-0.001L0.302,-0.001L0.302,-0.001L0.301,0L0.301,0L0.301,0L0.301,0L0.3,0L0.3,0L0.3,0L0.3,0L0.299,0L0.299,0L0.299,0L0.299,0L0.298,0L0.298,0L0.018,0L0.018,0L0.017,0L0.017,0L0.017,0L0.017,0L0.016,0L0.016,0L0.016,0L0.016,0L0.015,0L0.015,0L0.015,0L0.015,0L0.014,-0.001L0.014,-0.001L0.014,-0.001L0.014,-0.001L0.013,-0.001L0.013,-0.001L0.013,-0.001L0.013,-0.001L0.013,-0.001L0.012,-0.001L0.012,-0.002L0.012,-0.002L0.012,-0.002L0.012,-0.002L0.011,-0.002L0.011,-0.002L0.011,-0.002L0.011,-0.003L0.011,-0.003L0.011,-0.003L0.01,-0.003L0.01,-0.003L0.01,-0.003L0.01,-0.004L0.01,-0.004L0.01,-0.004L0.01,-0.004L0.009,-0.004L0.009,-0.005L0.009,-0.005L0.009,-0.005L0.009,-0.005L0.009,-0.005L0.009,-0.006L0.009,-0.006L0.009,-0.006L0.009,-0.006L0.008,-0.007L0.008,-0.007L0.008,-0.007L0.008,-0.007L0.008,-0.008L0.008,-0.008L0.008,-0.008L0.008,-0.008L0.008,-0.009L0.008,-0.009L0.008,-0.009L0.008,-0.009L0.008,-0.01L0.008,-0.01L0.008,-0.312L0.099,-0.632L0.099,-0.632L0.099,-0.632L0.099,-0.633L0.099,-0.633L0.1,-0.633L0.1,-0.633L0.1,-0.634L0.1,-0.634L0.1,-0.634L0.1,-0.634L0.1,-0.634L0.1,-0.635L0.1,-0.635L0.101,-0.635L0.101,-0.635L0.101,-0.635L0.101,-0.636L0.101,-0.636L0.101,-0.636L0.101,-0.636L0.102,-0.636L0.102,-0.636L0.102,-0.637L0.102,-0.637L0.102,-0.637L0.102,-0.637L0.103,-0.637L0.103,-0.637L0.103,-0.637L0.103,-0.638L0.103,-0.638L0.103,-0.638L0.104,-0.638L0.104,-0.638L0.104,-0.638L0.104,-0.638L0.104,-0.638L0.104,-0.639L0.105,-0.639L0.105,-0.639L0.105,-0.639L0.105,-0.639L0.105,-0.639L0.106,-0.639L0.106,-0.639L0.106,-0.639L0.106,-0.639L0.106,-0.639L0.107,-0.64L0.107,-0.64L0.107,-0.64L0.107,-0.64L0.108,-0.64L0.108,-0.64L0.108,-0.64L0.108,-0.64L0.108,-0.64L0.109,-0.64L0.109,-0.64L0.109,-0.64L0.109,-0.64L0.11,-0.64L0.11,-0.64L0.11,-0.64L0.352,-0.64ZM0.11,-0.63L0.11,-0.63L0.11,-0.63L0.11,-0.63L0.11,-0.63C0.11,-0.63 0.11,-0.63 0.11,-0.63L0.11,-0.63L0.11,-0.63L0.11,-0.63L0.11,-0.63L0.11,-0.63L0.11,-0.63L0.11,-0.63L0.109,-0.63L0.109,-0.63L0.109,-0.63L0.109,-0.63L0.109,-0.63L0.109,-0.63L0.109,-0.629L0.109,-0.629L0.109,-0.629L0.109,-0.629L0.109,-0.629L0.109,-0.629L0.109,-0.629L0.109,-0.629L0.109,-0.629L0.109,-0.629L0.109,-0.629L0.109,-0.629L0.109,-0.629L0.109,-0.629L0.109,-0.629L0.109,-0.629L0.109,-0.629L0.018,-0.311L0.018,-0.01L0.298,-0.01L0.298,-0.101L0.3,-0.278L0.3,-0.28L0.3,-0.282L0.301,-0.283L0.302,-0.285L0.303,-0.286L0.305,-0.287L0.307,-0.288L0.308,-0.288L0.31,-0.288L0.324,-0.288L0.328,-0.286L0.331,-0.283L0.332,-0.278L0.334,-0.012L0.46,-0.012L0.462,-0.278L0.462,-0.28L0.462,-0.281L0.463,-0.283L0.464,-0.284L0.465,-0.285L0.466,-0.286L0.467,-0.287L0.469,-0.288L0.47,-0.288L0.472,-0.288L0.485,-0.288L0.49,-0.286L0.493,-0.282L0.493,-0.278L0.496,-0.101L0.496,-0.01L0.776,-0.01L0.776,-0.311L0.684,-0.63L0.684,-0.63L0.684,-0.63L0.684,-0.63L0.684,-0.63L0.684,-0.63L0.683,-0.63L0.683,-0.63L0.683,-0.63L0.683,-0.63L0.683,-0.63L0.442,-0.63L0.442,-0.63L0.442,-0.63L0.442,-0.63L0.442,-0.63L0.442,-0.63L0.441,-0.63L0.441,-0.63L0.441,-0.63L0.441,-0.63L0.441,-0.63L0.441,-0.629L0.441,-0.629L0.441,-0.629L0.441,-0.629L0.441,-0.629L0.441,-0.629L0.441,-0.629L0.441,-0.628L0.407,-0.52L0.406,-0.518L0.405,-0.517L0.404,-0.516L0.403,-0.514L0.401,-0.514L0.4,-0.513L0.398,-0.513L0.396,-0.513L0.394,-0.513L0.393,-0.514L0.391,-0.514L0.39,-0.516L0.389,-0.517L0.388,-0.518L0.387,-0.52L0.352,-0.629L0.352,-0.63L0.352,-0.63L0.11,-0.63ZM0.441,-0.63L0.441,-0.63L0.441,-0.63ZM0.11,-0.63C0.11,-0.63 0.11,-0.63 0.11,-0.63ZM0.441,-0.63L0.441,-0.63L0.441,-0.63L0.441,-0.63L0.441,-0.63Z" style="fill:rgb(181,0,116);"/>
                    </g>
                    <g transform="matrix(64,0,0,386.697,9619.76,13705.5)">
                        <path d="M0.299,-0.64L0.309,-0.632L0.309,-0.63L0.309,-0.404L0.316,-0.394L0.323,-0.404L0.323,-0.63L0.323,-0.63L0.323,-0.631L0.323,-0.631L0.323,-0.631L0.323,-0.631L0.323,-0.632L0.323,-0.632L0.323,-0.632L0.323,-0.632L0.323,-0.633L0.323,-0.633L0.323,-0.633L0.323,-0.633L0.324,-0.634L0.324,-0.634L0.324,-0.634L0.324,-0.634L0.324,-0.635L0.324,-0.635L0.324,-0.635L0.324,-0.635L0.324,-0.635L0.324,-0.636L0.325,-0.636L0.325,-0.636L0.325,-0.636L0.325,-0.636L0.325,-0.637L0.325,-0.637L0.325,-0.637L0.326,-0.637L0.326,-0.637L0.326,-0.637L0.326,-0.638L0.326,-0.638L0.326,-0.638L0.327,-0.638L0.327,-0.638L0.327,-0.638L0.327,-0.638L0.327,-0.639L0.328,-0.639L0.328,-0.639L0.328,-0.639L0.328,-0.639L0.328,-0.639L0.329,-0.639L0.329,-0.639L0.329,-0.639L0.329,-0.639L0.33,-0.64L0.33,-0.64L0.33,-0.64L0.33,-0.64L0.331,-0.64L0.331,-0.64L0.331,-0.64L0.331,-0.64L0.332,-0.64L0.332,-0.64L0.332,-0.64L0.332,-0.64L0.333,-0.64L0.333,-0.64L0.614,-0.64L0.624,-0.632L0.624,-0.63L0.624,-0.327L0.466,-0.136L0.466,-0.01L0.466,-0.01L0.466,-0.009L0.466,-0.009L0.466,-0.009L0.466,-0.009L0.466,-0.008L0.466,-0.008L0.466,-0.008L0.466,-0.008L0.466,-0.007L0.466,-0.007L0.466,-0.007L0.466,-0.007L0.465,-0.006L0.465,-0.006L0.465,-0.006L0.465,-0.006L0.465,-0.005L0.465,-0.005L0.465,-0.005L0.465,-0.005L0.465,-0.005L0.465,-0.004L0.464,-0.004L0.464,-0.004L0.464,-0.004L0.464,-0.004L0.464,-0.003L0.464,-0.003L0.464,-0.003L0.464,-0.003L0.463,-0.003L0.463,-0.003L0.463,-0.002L0.463,-0.002L0.463,-0.002L0.463,-0.002L0.462,-0.002L0.462,-0.002L0.462,-0.002L0.462,-0.001L0.462,-0.001L0.461,-0.001L0.461,-0.001L0.461,-0.001L0.461,-0.001L0.461,-0.001L0.461,-0.001L0.46,-0.001L0.46,-0.001L0.46,0L0.46,0L0.459,0L0.459,0L0.459,0L0.459,0L0.459,0L0.458,0L0.458,0L0.458,0L0.458,0L0.457,0L0.457,0L0.457,0L0.176,0L0.176,0L0.175,0L0.175,0L0.175,0L0.175,0L0.174,0L0.174,0L0.174,0L0.174,0L0.173,0L0.173,0L0.173,0L0.173,0L0.172,-0.001L0.172,-0.001L0.172,-0.001L0.172,-0.001L0.171,-0.001L0.171,-0.001L0.171,-0.001L0.171,-0.001L0.171,-0.001L0.17,-0.001L0.17,-0.002L0.17,-0.002L0.17,-0.002L0.17,-0.002L0.169,-0.002L0.169,-0.002L0.169,-0.002L0.169,-0.003L0.169,-0.003L0.169,-0.003L0.168,-0.003L0.168,-0.003L0.168,-0.003L0.168,-0.004L0.168,-0.004L0.168,-0.004L0.168,-0.004L0.167,-0.004L0.167,-0.005L0.167,-0.005L0.167,-0.005L0.167,-0.005L0.167,-0.005L0.167,-0.006L0.167,-0.006L0.167,-0.006L0.167,-0.006L0.166,-0.007L0.166,-0.007L0.166,-0.007L0.166,-0.007L0.166,-0.008L0.166,-0.008L0.166,-0.008L0.166,-0.008L0.166,-0.009L0.166,-0.009L0.166,-0.009L0.166,-0.009L0.166,-0.01L0.166,-0.01L0.166,-0.136L0.008,-0.327L0.008,-0.63L0.008,-0.63L0.008,-0.631L0.008,-0.631L0.008,-0.631L0.008,-0.631L0.008,-0.632L0.008,-0.632L0.008,-0.632L0.008,-0.632L0.008,-0.633L0.008,-0.633L0.008,-0.633L0.008,-0.633L0.009,-0.634L0.009,-0.634L0.009,-0.634L0.009,-0.634L0.009,-0.635L0.009,-0.635L0.009,-0.635L0.009,-0.635L0.009,-0.635L0.009,-0.636L0.01,-0.636L0.01,-0.636L0.01,-0.636L0.01,-0.636L0.01,-0.637L0.01,-0.637L0.01,-0.637L0.011,-0.637L0.011,-0.637L0.011,-0.637L0.011,-0.638L0.011,-0.638L0.011,-0.638L0.012,-0.638L0.012,-0.638L0.012,-0.638L0.012,-0.638L0.012,-0.639L0.013,-0.639L0.013,-0.639L0.013,-0.639L0.013,-0.639L0.013,-0.639L0.014,-0.639L0.014,-0.639L0.014,-0.639L0.014,-0.639L0.015,-0.64L0.015,-0.64L0.015,-0.64L0.015,-0.64L0.016,-0.64L0.016,-0.64L0.016,-0.64L0.016,-0.64L0.017,-0.64L0.017,-0.64L0.017,-0.64L0.017,-0.64L0.018,-0.64L0.018,-0.64L0.299,-0.64ZM0.018,-0.63L0.018,-0.331L0.174,-0.143L0.176,-0.137L0.176,-0.136L0.176,-0.01L0.456,-0.01L0.456,-0.136L0.456,-0.137L0.456,-0.139L0.457,-0.14L0.457,-0.141L0.458,-0.143L0.614,-0.331L0.614,-0.63L0.333,-0.63L0.333,-0.404L0.333,-0.402L0.333,-0.401L0.332,-0.399L0.331,-0.398L0.324,-0.388L0.323,-0.387L0.322,-0.386L0.321,-0.385L0.32,-0.384L0.318,-0.384L0.317,-0.384L0.315,-0.384L0.314,-0.384L0.312,-0.384L0.311,-0.385L0.31,-0.386L0.309,-0.387L0.308,-0.388L0.301,-0.398L0.3,-0.399L0.299,-0.401L0.299,-0.402L0.299,-0.404L0.299,-0.63L0.018,-0.63Z" style="fill:rgb(181,0,116);"/>
                    </g>
                    <g transform="matrix(64,0,0,386.697,9660.2,13705.5)">
                        <path d="M0.584,-0.01L0.584,-0.233C0.584,-0.239 0.58,-0.244 0.574,-0.244L0.474,-0.244L0.359,-0.176L0.342,-0.176L0.584,-0.334L0.584,-0.5C0.584,-0.59 0.534,-0.64 0.444,-0.64L0.148,-0.64C0.058,-0.64 0.008,-0.59 0.008,-0.5L0.008,-0.406C0.008,-0.401 0.012,-0.396 0.018,-0.396L0.119,-0.396L0.233,-0.464L0.25,-0.464L0.01,-0.31L0.01,-0.01C0.01,-0.004 0.014,0 0.02,0L0.574,0C0.58,0 0.584,-0.004 0.584,-0.01Z" style="fill:rgb(181,0,116);fill-rule:nonzero;"/>
                    </g>
                    <g transform="matrix(64,0,0,386.697,9698.09,13705.5)">
                        <path d="M0.484,-0.64L0.148,-0.64C0.058,-0.64 0.008,-0.59 0.008,-0.5L0.008,-0.14C0.008,-0.05 0.058,0 0.148,0L0.484,0C0.574,0 0.624,-0.05 0.624,-0.14L0.624,-0.5C0.624,-0.59 0.574,-0.64 0.484,-0.64ZM0.323,-0.464L0.323,-0.366L0.309,-0.332L0.309,-0.464L0.323,-0.464ZM0.309,-0.176L0.309,-0.286L0.323,-0.32L0.323,-0.176L0.309,-0.176Z" style="fill:rgb(181,0,116);fill-rule:nonzero;"/>
                    </g>
                    <g transform="matrix(64,0,0,386.697,9738.54,13705.5)">
                        <path d="M0.562,-0.24L0.459,-0.24L0.459,-0.63C0.459,-0.636 0.455,-0.64 0.45,-0.64L0.07,-0.64C0.065,-0.64 0.061,-0.636 0.061,-0.63L0.061,-0.406C0.061,-0.4 0.065,-0.396 0.07,-0.396L0.159,-0.396L0.159,-0.24L0.018,-0.24C0.012,-0.24 0.008,-0.236 0.008,-0.23L0.008,-0.01C0.008,-0.004 0.012,0 0.018,0L0.562,0C0.567,0 0.571,-0.004 0.571,-0.01L0.571,-0.23C0.571,-0.236 0.567,-0.24 0.562,-0.24Z" style="fill:rgb(181,0,116);fill-rule:nonzero;"/>
                    </g>
                    <g transform="matrix(64,0,0,386.697,9775.6,13705.5)">
                        <path d="M0.484,-0.64L0.148,-0.64C0.058,-0.64 0.008,-0.59 0.008,-0.5L0.008,-0.394C0.008,-0.304 0.058,-0.254 0.148,-0.254L0.323,-0.254L0.323,-0.176L0.309,-0.176L0.309,-0.23C0.309,-0.236 0.305,-0.24 0.299,-0.24L0.018,-0.24C0.012,-0.24 0.008,-0.236 0.008,-0.23L0.008,-0.14C0.008,-0.05 0.058,0 0.148,0L0.484,0C0.574,0 0.624,-0.05 0.624,-0.14L0.624,-0.5C0.624,-0.59 0.574,-0.64 0.484,-0.64ZM0.309,-0.39L0.309,-0.464L0.323,-0.464L0.323,-0.39L0.309,-0.39Z" style="fill:rgb(181,0,116);fill-rule:nonzero;"/>
                    </g>
                    <g transform="matrix(64,0,0,386.697,9816.04,13705.5)">
                        <path d="M0.298,-0.64L0.308,-0.632L0.308,-0.63L0.308,-0.01L0.308,-0.01L0.308,-0.009L0.308,-0.009L0.308,-0.009L0.308,-0.009L0.308,-0.008L0.308,-0.008L0.308,-0.008L0.308,-0.008L0.308,-0.007L0.308,-0.007L0.308,-0.007L0.308,-0.007L0.307,-0.006L0.307,-0.006L0.307,-0.006L0.307,-0.006L0.307,-0.005L0.307,-0.005L0.307,-0.005L0.307,-0.005L0.307,-0.005L0.307,-0.004L0.306,-0.004L0.306,-0.004L0.306,-0.004L0.306,-0.004L0.306,-0.003L0.306,-0.003L0.306,-0.003L0.305,-0.003L0.305,-0.003L0.305,-0.003L0.305,-0.002L0.305,-0.002L0.305,-0.002L0.304,-0.002L0.304,-0.002L0.304,-0.002L0.304,-0.002L0.304,-0.001L0.303,-0.001L0.303,-0.001L0.303,-0.001L0.303,-0.001L0.303,-0.001L0.302,-0.001L0.302,-0.001L0.302,-0.001L0.302,-0.001L0.301,0L0.301,0L0.301,0L0.301,0L0.3,0L0.3,0L0.3,0L0.3,0L0.299,0L0.299,0L0.299,0L0.299,0L0.298,0L0.298,0L0.018,0L0.018,0L0.017,0L0.017,0L0.017,0L0.017,0L0.016,0L0.016,0L0.016,0L0.016,0L0.015,0L0.015,0L0.015,0L0.015,0L0.014,-0.001L0.014,-0.001L0.014,-0.001L0.014,-0.001L0.013,-0.001L0.013,-0.001L0.013,-0.001L0.013,-0.001L0.013,-0.001L0.012,-0.001L0.012,-0.002L0.012,-0.002L0.012,-0.002L0.012,-0.002L0.011,-0.002L0.011,-0.002L0.011,-0.002L0.011,-0.003L0.011,-0.003L0.011,-0.003L0.01,-0.003L0.01,-0.003L0.01,-0.003L0.01,-0.004L0.01,-0.004L0.01,-0.004L0.01,-0.004L0.009,-0.004L0.009,-0.005L0.009,-0.005L0.009,-0.005L0.009,-0.005L0.009,-0.005L0.009,-0.006L0.009,-0.006L0.009,-0.006L0.009,-0.006L0.008,-0.007L0.008,-0.007L0.008,-0.007L0.008,-0.007L0.008,-0.008L0.008,-0.008L0.008,-0.008L0.008,-0.008L0.008,-0.009L0.008,-0.009L0.008,-0.009L0.008,-0.009L0.008,-0.01L0.008,-0.01L0.008,-0.63L0.008,-0.63L0.008,-0.631L0.008,-0.631L0.008,-0.631L0.008,-0.631L0.008,-0.632L0.008,-0.632L0.008,-0.632L0.008,-0.632L0.008,-0.633L0.008,-0.633L0.008,-0.633L0.008,-0.633L0.009,-0.634L0.009,-0.634L0.009,-0.634L0.009,-0.634L0.009,-0.635L0.009,-0.635L0.009,-0.635L0.009,-0.635L0.009,-0.635L0.009,-0.636L0.01,-0.636L0.01,-0.636L0.01,-0.636L0.01,-0.636L0.01,-0.637L0.01,-0.637L0.01,-0.637L0.011,-0.637L0.011,-0.637L0.011,-0.637L0.011,-0.638L0.011,-0.638L0.011,-0.638L0.012,-0.638L0.012,-0.638L0.012,-0.638L0.012,-0.638L0.012,-0.639L0.013,-0.639L0.013,-0.639L0.013,-0.639L0.013,-0.639L0.013,-0.639L0.014,-0.639L0.014,-0.639L0.014,-0.639L0.014,-0.639L0.015,-0.64L0.015,-0.64L0.015,-0.64L0.015,-0.64L0.016,-0.64L0.016,-0.64L0.016,-0.64L0.016,-0.64L0.017,-0.64L0.017,-0.64L0.017,-0.64L0.017,-0.64L0.018,-0.64L0.018,-0.64L0.298,-0.64ZM0.018,-0.63L0.018,-0.01L0.298,-0.01L0.298,-0.63L0.018,-0.63Z" style="fill:rgb(181,0,116);"/>
                    </g>
                    <g transform="matrix(64,0,0,386.697,9836.27,13705.5)">
                        <path d="M0.262,-0.64L0.273,-0.633L0.39,-0.416L0.402,-0.416L0.341,-0.54L0.341,-0.63L0.341,-0.63L0.341,-0.631L0.341,-0.631L0.341,-0.631L0.341,-0.631L0.341,-0.632L0.341,-0.632L0.341,-0.632L0.341,-0.632L0.341,-0.633L0.341,-0.633L0.341,-0.633L0.341,-0.633L0.342,-0.634L0.342,-0.634L0.342,-0.634L0.342,-0.634L0.342,-0.635L0.342,-0.635L0.342,-0.635L0.342,-0.635L0.342,-0.635L0.342,-0.636L0.343,-0.636L0.343,-0.636L0.343,-0.636L0.343,-0.636L0.343,-0.637L0.343,-0.637L0.343,-0.637L0.343,-0.637L0.344,-0.637L0.344,-0.637L0.344,-0.638L0.344,-0.638L0.344,-0.638L0.344,-0.638L0.345,-0.638L0.345,-0.638L0.345,-0.638L0.345,-0.639L0.345,-0.639L0.346,-0.639L0.346,-0.639L0.346,-0.639L0.346,-0.639L0.346,-0.639L0.346,-0.639L0.347,-0.639L0.347,-0.639L0.347,-0.64L0.347,-0.64L0.348,-0.64L0.348,-0.64L0.348,-0.64L0.348,-0.64L0.348,-0.64L0.349,-0.64L0.349,-0.64L0.349,-0.64L0.349,-0.64L0.35,-0.64L0.35,-0.64L0.35,-0.64L0.612,-0.64L0.622,-0.632L0.622,-0.63L0.622,-0.01L0.622,-0.01L0.622,-0.009L0.622,-0.009L0.622,-0.009L0.622,-0.009L0.622,-0.008L0.622,-0.008L0.622,-0.008L0.622,-0.008L0.622,-0.007L0.622,-0.007L0.622,-0.007L0.622,-0.007L0.621,-0.006L0.621,-0.006L0.621,-0.006L0.621,-0.006L0.621,-0.005L0.621,-0.005L0.621,-0.005L0.621,-0.005L0.621,-0.005L0.621,-0.004L0.62,-0.004L0.62,-0.004L0.62,-0.004L0.62,-0.004L0.62,-0.003L0.62,-0.003L0.62,-0.003L0.619,-0.003L0.619,-0.003L0.619,-0.003L0.619,-0.002L0.619,-0.002L0.619,-0.002L0.618,-0.002L0.618,-0.002L0.618,-0.002L0.618,-0.002L0.618,-0.001L0.617,-0.001L0.617,-0.001L0.617,-0.001L0.617,-0.001L0.617,-0.001L0.616,-0.001L0.616,-0.001L0.616,-0.001L0.616,-0.001L0.615,0L0.615,0L0.615,0L0.615,0L0.614,0L0.614,0L0.614,0L0.614,0L0.613,0L0.613,0L0.613,0L0.613,0L0.612,0L0.612,0L0.367,0L0.367,0L0.366,0L0.366,0L0.366,0L0.366,0L0.365,0L0.365,0L0.365,0L0.365,0L0.365,0L0.364,0L0.364,0L0.364,0L0.364,0L0.364,0L0.363,0L0.363,0L0.363,-0.001L0.363,-0.001L0.363,-0.001L0.362,-0.001L0.362,-0.001L0.362,-0.001L0.362,-0.001L0.362,-0.001L0.362,-0.001L0.361,-0.001L0.361,-0.001L0.361,-0.001L0.361,-0.002L0.361,-0.002L0.361,-0.002L0.36,-0.002L0.36,-0.002L0.36,-0.002L0.36,-0.002L0.36,-0.002L0.36,-0.002L0.359,-0.003L0.359,-0.003L0.359,-0.003L0.359,-0.003L0.359,-0.003L0.359,-0.003L0.359,-0.003L0.358,-0.004L0.358,-0.004L0.358,-0.004L0.358,-0.004L0.358,-0.004L0.357,-0.005L0.357,-0.005L0.357,-0.006L0.357,-0.006L0.356,-0.007L0.356,-0.007L0.236,-0.23L0.225,-0.23L0.288,-0.1L0.288,-0.01L0.288,-0.01L0.288,-0.009L0.288,-0.009L0.288,-0.009L0.288,-0.009L0.288,-0.008L0.288,-0.008L0.288,-0.008L0.288,-0.008L0.288,-0.007L0.288,-0.007L0.288,-0.007L0.288,-0.007L0.287,-0.006L0.287,-0.006L0.287,-0.006L0.287,-0.006L0.287,-0.005L0.287,-0.005L0.287,-0.005L0.287,-0.005L0.287,-0.005L0.287,-0.004L0.286,-0.004L0.286,-0.004L0.286,-0.004L0.286,-0.004L0.286,-0.003L0.286,-0.003L0.286,-0.003L0.285,-0.003L0.285,-0.003L0.285,-0.003L0.285,-0.002L0.285,-0.002L0.285,-0.002L0.284,-0.002L0.284,-0.002L0.284,-0.002L0.284,-0.002L0.284,-0.001L0.283,-0.001L0.283,-0.001L0.283,-0.001L0.283,-0.001L0.283,-0.001L0.282,-0.001L0.282,-0.001L0.282,-0.001L0.282,-0.001L0.281,0L0.281,0L0.281,0L0.281,0L0.28,0L0.28,0L0.28,0L0.28,0L0.279,0L0.279,0L0.279,0L0.279,0L0.278,0L0.278,0L0.018,0L0.018,0L0.017,0L0.017,0L0.017,0L0.017,0L0.016,0L0.016,0L0.016,0L0.016,0L0.015,0L0.015,0L0.015,0L0.015,0L0.014,-0.001L0.014,-0.001L0.014,-0.001L0.014,-0.001L0.013,-0.001L0.013,-0.001L0.013,-0.001L0.013,-0.001L0.013,-0.001L0.012,-0.001L0.012,-0.002L0.012,-0.002L0.012,-0.002L0.012,-0.002L0.011,-0.002L0.011,-0.002L0.011,-0.002L0.011,-0.003L0.011,-0.003L0.011,-0.003L0.01,-0.003L0.01,-0.003L0.01,-0.003L0.01,-0.004L0.01,-0.004L0.01,-0.004L0.01,-0.004L0.009,-0.004L0.009,-0.005L0.009,-0.005L0.009,-0.005L0.009,-0.005L0.009,-0.005L0.009,-0.006L0.009,-0.006L0.009,-0.006L0.009,-0.006L0.008,-0.007L0.008,-0.007L0.008,-0.007L0.008,-0.007L0.008,-0.008L0.008,-0.008L0.008,-0.008L0.008,-0.008L0.008,-0.009L0.008,-0.009L0.008,-0.009L0.008,-0.009L0.008,-0.01L0.008,-0.01L0.008,-0.63L0.008,-0.63L0.008,-0.631L0.008,-0.631L0.008,-0.631L0.008,-0.631L0.008,-0.632L0.008,-0.632L0.008,-0.632L0.008,-0.632L0.008,-0.633L0.008,-0.633L0.008,-0.633L0.008,-0.633L0.009,-0.634L0.009,-0.634L0.009,-0.634L0.009,-0.634L0.009,-0.635L0.009,-0.635L0.009,-0.635L0.009,-0.635L0.009,-0.635L0.009,-0.636L0.01,-0.636L0.01,-0.636L0.01,-0.636L0.01,-0.636L0.01,-0.637L0.01,-0.637L0.01,-0.637L0.011,-0.637L0.011,-0.637L0.011,-0.637L0.011,-0.638L0.011,-0.638L0.011,-0.638L0.012,-0.638L0.012,-0.638L0.012,-0.638L0.012,-0.638L0.012,-0.639L0.013,-0.639L0.013,-0.639L0.013,-0.639L0.013,-0.639L0.013,-0.639L0.014,-0.639L0.014,-0.639L0.014,-0.639L0.014,-0.639L0.015,-0.64L0.015,-0.64L0.015,-0.64L0.015,-0.64L0.016,-0.64L0.016,-0.64L0.016,-0.64L0.016,-0.64L0.017,-0.64L0.017,-0.64L0.017,-0.64L0.017,-0.64L0.018,-0.64L0.018,-0.64L0.262,-0.64ZM0.018,-0.63L0.018,-0.01L0.278,-0.01L0.278,-0.098L0.216,-0.226L0.215,-0.227L0.215,-0.229L0.215,-0.23L0.215,-0.232L0.215,-0.233L0.216,-0.235L0.217,-0.236L0.218,-0.237L0.219,-0.238L0.22,-0.239L0.222,-0.24L0.223,-0.24L0.225,-0.24L0.238,-0.24L0.242,-0.238L0.245,-0.235L0.365,-0.012L0.367,-0.01L0.612,-0.01L0.612,-0.63L0.351,-0.63L0.351,-0.542L0.411,-0.421L0.412,-0.416L0.412,-0.414L0.412,-0.413L0.411,-0.411L0.41,-0.41L0.409,-0.409L0.408,-0.408L0.407,-0.407L0.405,-0.406L0.404,-0.406L0.402,-0.406L0.39,-0.406L0.388,-0.406L0.387,-0.406L0.385,-0.407L0.384,-0.408L0.383,-0.409L0.382,-0.41L0.381,-0.411L0.264,-0.628L0.264,-0.628L0.264,-0.628L0.264,-0.628L0.264,-0.628L0.264,-0.628L0.264,-0.628L0.264,-0.628L0.264,-0.629L0.264,-0.629L0.263,-0.629L0.263,-0.629L0.263,-0.629L0.263,-0.629L0.263,-0.629L0.263,-0.629L0.263,-0.629L0.263,-0.629L0.263,-0.629L0.263,-0.629L0.263,-0.629L0.263,-0.629L0.263,-0.629L0.263,-0.629L0.263,-0.629L0.263,-0.629L0.263,-0.63L0.263,-0.63L0.263,-0.63L0.262,-0.63L0.262,-0.63L0.262,-0.63L0.262,-0.63L0.262,-0.63L0.262,-0.63L0.262,-0.63L0.262,-0.63L0.262,-0.63L0.018,-0.63ZM0.262,-0.63C0.262,-0.63 0.262,-0.63 0.262,-0.63L0.262,-0.63Z" style="fill:rgb(181,0,116);"/>
                    </g>
                    <g transform="matrix(64,0,0,386.697,9569.2,13959.3)">
                        <path d="M0.614,-0.336L0.333,-0.336C0.327,-0.336 0.323,-0.332 0.323,-0.326L0.323,-0.2C0.323,-0.194 0.326,-0.19 0.332,-0.19L0.381,-0.19L0.381,-0.176L0.309,-0.176L0.309,-0.464L0.323,-0.464L0.323,-0.36C0.323,-0.354 0.327,-0.35 0.333,-0.35L0.614,-0.35C0.62,-0.35 0.624,-0.354 0.624,-0.36L0.624,-0.5C0.624,-0.59 0.574,-0.64 0.484,-0.64L0.148,-0.64C0.058,-0.64 0.008,-0.59 0.008,-0.5L0.008,-0.14C0.008,-0.05 0.058,0 0.148,0L0.484,0C0.574,0 0.624,-0.05 0.624,-0.14L0.624,-0.326C0.624,-0.332 0.62,-0.336 0.614,-0.336Z" style="fill:rgb(181,0,116);fill-rule:nonzero;"/>
                    </g>
                    <g transform="matrix(64,0,0,386.697,9609.64,13959.3)">
                        <path d="M0.514,-0.64L0.118,-0.64C0.113,-0.64 0.109,-0.638 0.107,-0.632L0.008,-0.24L0.008,-0.01C0.008,-0.004 0.012,0 0.018,0L0.299,0C0.305,0 0.309,-0.004 0.309,-0.01L0.309,-0.136L0.323,-0.136L0.323,-0.01C0.323,-0.004 0.327,0 0.333,0L0.614,0C0.62,0 0.624,-0.004 0.624,-0.01L0.624,-0.24L0.526,-0.632C0.524,-0.638 0.52,-0.64 0.514,-0.64ZM0.31,-0.464L0.322,-0.464L0.324,-0.28L0.308,-0.28L0.31,-0.464Z" style="fill:rgb(181,0,116);fill-rule:nonzero;"/>
                    </g>
                    <g transform="matrix(64,0,0,386.697,9650.09,13959.3)">
                        <path d="M0.008,-0.312L0.008,-0.01C0.008,-0.004 0.012,0 0.018,0L0.298,0C0.304,0 0.308,-0.004 0.308,-0.01L0.308,-0.101L0.31,-0.278L0.322,-0.278L0.324,-0.011C0.324,-0.006 0.328,-0.002 0.334,-0.002L0.46,-0.002C0.466,-0.002 0.47,-0.006 0.47,-0.011L0.472,-0.278L0.483,-0.278L0.486,-0.101L0.486,-0.01C0.486,-0.004 0.49,0 0.495,0L0.776,0C0.782,0 0.786,-0.004 0.786,-0.01L0.786,-0.312L0.694,-0.632C0.693,-0.637 0.689,-0.64 0.683,-0.64L0.442,-0.64C0.436,-0.64 0.433,-0.637 0.431,-0.632L0.397,-0.523L0.362,-0.632C0.361,-0.637 0.358,-0.64 0.352,-0.64L0.11,-0.64C0.105,-0.64 0.101,-0.637 0.099,-0.632L0.008,-0.312Z" style="fill:rgb(181,0,116);fill-rule:nonzero;"/>
                    </g>
                    <g transform="matrix(64,0,0,386.697,9700.91,13959.3)">
                        <path d="M0.008,-0.63L0.008,-0.01C0.008,-0.004 0.012,0 0.018,0L0.298,0C0.304,0 0.308,-0.004 0.308,-0.01L0.308,-0.63C0.308,-0.636 0.304,-0.64 0.298,-0.64L0.018,-0.64C0.012,-0.64 0.008,-0.636 0.008,-0.63Z" style="fill:rgb(181,0,116);fill-rule:nonzero;"/>
                    </g>
                    <g transform="matrix(64,0,0,386.697,9721.13,13959.3)">
                        <path d="M0.018,0L0.278,0C0.284,0 0.288,-0.004 0.288,-0.01L0.288,-0.1L0.225,-0.23L0.236,-0.23L0.356,-0.007C0.359,-0.002 0.362,0 0.367,0L0.612,0C0.618,0 0.622,-0.004 0.622,-0.01L0.622,-0.63C0.622,-0.636 0.618,-0.64 0.612,-0.64L0.35,-0.64C0.345,-0.64 0.341,-0.636 0.341,-0.63L0.341,-0.54L0.402,-0.416L0.39,-0.416L0.273,-0.633C0.27,-0.638 0.266,-0.64 0.262,-0.64L0.018,-0.64C0.012,-0.64 0.008,-0.636 0.008,-0.63L0.008,-0.01C0.008,-0.004 0.012,0 0.018,0Z" style="fill:rgb(181,0,116);fill-rule:nonzero;"/>
                    </g>
                    <g transform="matrix(64,0,0,386.697,9761.45,13959.3)">
                        <path d="M0.614,-0.336L0.333,-0.336C0.327,-0.336 0.323,-0.332 0.323,-0.326L0.323,-0.2C0.323,-0.194 0.326,-0.19 0.332,-0.19L0.381,-0.19L0.381,-0.176L0.309,-0.176L0.309,-0.464L0.323,-0.464L0.323,-0.36C0.323,-0.354 0.327,-0.35 0.333,-0.35L0.614,-0.35C0.62,-0.35 0.624,-0.354 0.624,-0.36L0.624,-0.5C0.624,-0.59 0.574,-0.64 0.484,-0.64L0.148,-0.64C0.058,-0.64 0.008,-0.59 0.008,-0.5L0.008,-0.14C0.008,-0.05 0.058,0 0.148,0L0.484,0C0.574,0 0.624,-0.05 0.624,-0.14L0.624,-0.326C0.624,-0.332 0.62,-0.336 0.614,-0.336Z" style="fill:rgb(181,0,116);fill-rule:nonzero;"/>
                    </g>
                </g>
            </g>
        </g>
    </g>
</svg>
