<?xml version="1.0" encoding="UTF-8" standalone="no"?>
<!DOCTYPE svg PUBLIC "-//W3C//DTD SVG 1.1//EN" "http://www.w3.org/Graphics/SVG/1.1/DTD/svg11.dtd">
<svg width="100%" height="100%" viewBox="0 0 1164 388" version="1.1" xmlns="http://www.w3.org/2000/svg" xmlns:xlink="http://www.w3.org/1999/xlink" xml:space="preserve" xmlns:serif="http://www.serif.com/" style="fill-rule:evenodd;clip-rule:evenodd;stroke-linejoin:round;stroke-miterlimit:2;">
    <g transform="matrix(1,0,0,1,-14790.1,-13564.3)">
        <g id="Artboard1" transform="matrix(0.358528,0,0,0.157634,9488.99,11492.6)">
            <rect x="14785.9" y="13142.6" width="3245.62" height="2458.6" style="fill:none;"/>
            <clipPath id="_clip1">
                <rect x="14785.9" y="13142.6" width="3245.62" height="2458.6"/>
            </clipPath>
            <g clip-path="url(#_clip1)">
                <g transform="matrix(10.5886,0,0,24.0832,-88715.8,-333044)">
                    <g opacity="0.3">
                        <g transform="matrix(64,0,0,64,9774.43,14415.5)">
                            <path d="M0.352,-0.64L0.362,-0.632L0.397,-0.523L0.431,-0.632L0.431,-0.632L0.431,-0.633L0.432,-0.633L0.432,-0.634L0.432,-0.634L0.432,-0.634L0.432,-0.634L0.432,-0.635L0.432,-0.635L0.432,-0.635L0.433,-0.635L0.433,-0.635L0.433,-0.636L0.433,-0.636L0.433,-0.636L0.433,-0.636L0.433,-0.636L0.433,-0.636L0.434,-0.637L0.434,-0.637L0.434,-0.637L0.434,-0.637L0.434,-0.637L0.434,-0.637L0.435,-0.637L0.435,-0.638L0.435,-0.638L0.435,-0.638L0.435,-0.638L0.435,-0.638L0.436,-0.638L0.436,-0.638L0.436,-0.638L0.436,-0.639L0.436,-0.639L0.436,-0.639L0.437,-0.639L0.437,-0.639L0.437,-0.639L0.437,-0.639L0.437,-0.639L0.438,-0.639L0.438,-0.639L0.438,-0.639L0.438,-0.64L0.438,-0.64L0.439,-0.64L0.439,-0.64L0.439,-0.64L0.439,-0.64L0.44,-0.64L0.44,-0.64L0.44,-0.64L0.44,-0.64L0.441,-0.64L0.441,-0.64L0.441,-0.64L0.441,-0.64L0.442,-0.64L0.442,-0.64L0.684,-0.64L0.694,-0.632L0.694,-0.632L0.786,-0.312L0.786,-0.01L0.786,-0.01L0.786,-0.009L0.786,-0.009L0.786,-0.009L0.786,-0.009L0.786,-0.008L0.786,-0.008L0.786,-0.008L0.786,-0.008L0.786,-0.007L0.786,-0.007L0.786,-0.007L0.786,-0.007L0.785,-0.006L0.785,-0.006L0.785,-0.006L0.785,-0.006L0.785,-0.005L0.785,-0.005L0.785,-0.005L0.785,-0.005L0.785,-0.005L0.785,-0.004L0.784,-0.004L0.784,-0.004L0.784,-0.004L0.784,-0.004L0.784,-0.003L0.784,-0.003L0.784,-0.003L0.783,-0.003L0.783,-0.003L0.783,-0.003L0.783,-0.002L0.783,-0.002L0.783,-0.002L0.782,-0.002L0.782,-0.002L0.782,-0.002L0.782,-0.002L0.782,-0.001L0.781,-0.001L0.781,-0.001L0.781,-0.001L0.781,-0.001L0.781,-0.001L0.78,-0.001L0.78,-0.001L0.78,-0.001L0.78,-0.001L0.779,0L0.779,0L0.779,0L0.779,0L0.778,0L0.778,0L0.778,0L0.778,0L0.777,0L0.777,0L0.777,0L0.777,0L0.776,0L0.776,0L0.495,0L0.495,0L0.495,0L0.494,0L0.494,0L0.494,0L0.494,0L0.493,0L0.493,0L0.493,0L0.493,0L0.493,0L0.492,0L0.492,0L0.492,-0.001L0.492,-0.001L0.491,-0.001L0.491,-0.001L0.491,-0.001L0.491,-0.001L0.491,-0.001L0.491,-0.001L0.49,-0.001L0.49,-0.001L0.49,-0.002L0.49,-0.002L0.49,-0.002L0.489,-0.002L0.489,-0.002L0.489,-0.002L0.489,-0.002L0.489,-0.003L0.489,-0.003L0.488,-0.003L0.488,-0.003L0.488,-0.003L0.488,-0.003L0.488,-0.004L0.488,-0.004L0.488,-0.004L0.488,-0.004L0.487,-0.004L0.487,-0.005L0.487,-0.005L0.487,-0.005L0.487,-0.005L0.487,-0.005L0.487,-0.006L0.487,-0.006L0.487,-0.006L0.487,-0.006L0.486,-0.007L0.486,-0.007L0.486,-0.007L0.486,-0.007L0.486,-0.008L0.486,-0.008L0.486,-0.008L0.486,-0.008L0.486,-0.009L0.486,-0.009L0.486,-0.009L0.486,-0.009L0.486,-0.01L0.486,-0.01L0.486,-0.101L0.483,-0.278L0.472,-0.278L0.47,-0.011L0.47,-0.011L0.47,-0.011L0.47,-0.01L0.47,-0.01L0.47,-0.01L0.47,-0.01L0.47,-0.009L0.47,-0.009L0.47,-0.009L0.47,-0.009L0.47,-0.009L0.47,-0.008L0.47,-0.008L0.469,-0.008L0.469,-0.008L0.469,-0.007L0.469,-0.007L0.469,-0.007L0.469,-0.007L0.469,-0.007L0.469,-0.007L0.469,-0.006L0.469,-0.006L0.468,-0.006L0.468,-0.006L0.468,-0.006L0.468,-0.005L0.468,-0.005L0.468,-0.005L0.468,-0.005L0.467,-0.005L0.467,-0.005L0.467,-0.004L0.467,-0.004L0.467,-0.004L0.467,-0.004L0.466,-0.004L0.466,-0.004L0.466,-0.004L0.466,-0.004L0.466,-0.003L0.465,-0.003L0.465,-0.003L0.465,-0.003L0.465,-0.003L0.465,-0.003L0.464,-0.003L0.464,-0.003L0.464,-0.003L0.464,-0.003L0.463,-0.002L0.463,-0.002L0.463,-0.002L0.463,-0.002L0.462,-0.002L0.462,-0.002L0.462,-0.002L0.462,-0.002L0.461,-0.002L0.461,-0.002L0.461,-0.002L0.461,-0.002L0.46,-0.002L0.46,-0.002L0.334,-0.002L0.334,-0.002L0.333,-0.002L0.333,-0.002L0.333,-0.002L0.333,-0.002L0.332,-0.002L0.332,-0.002L0.332,-0.002L0.332,-0.002L0.331,-0.002L0.331,-0.002L0.331,-0.002L0.331,-0.002L0.33,-0.003L0.33,-0.003L0.33,-0.003L0.33,-0.003L0.329,-0.003L0.329,-0.003L0.329,-0.003L0.329,-0.003L0.329,-0.003L0.328,-0.003L0.328,-0.004L0.328,-0.004L0.328,-0.004L0.328,-0.004L0.327,-0.004L0.327,-0.004L0.327,-0.004L0.327,-0.004L0.327,-0.005L0.327,-0.005L0.326,-0.005L0.326,-0.005L0.326,-0.005L0.326,-0.005L0.326,-0.006L0.326,-0.006L0.326,-0.006L0.325,-0.006L0.325,-0.006L0.325,-0.007L0.325,-0.007L0.325,-0.007L0.325,-0.007L0.325,-0.007L0.325,-0.007L0.325,-0.008L0.325,-0.008L0.324,-0.008L0.324,-0.008L0.324,-0.009L0.324,-0.009L0.324,-0.009L0.324,-0.009L0.324,-0.009L0.324,-0.01L0.324,-0.01L0.324,-0.01L0.324,-0.01L0.324,-0.011L0.324,-0.011L0.324,-0.011L0.322,-0.278L0.31,-0.278L0.308,-0.101L0.308,-0.01L0.308,-0.01L0.308,-0.009L0.308,-0.009L0.308,-0.009L0.308,-0.009L0.308,-0.008L0.308,-0.008L0.308,-0.008L0.308,-0.008L0.308,-0.007L0.308,-0.007L0.308,-0.007L0.308,-0.007L0.307,-0.006L0.307,-0.006L0.307,-0.006L0.307,-0.006L0.307,-0.005L0.307,-0.005L0.307,-0.005L0.307,-0.005L0.307,-0.005L0.307,-0.004L0.306,-0.004L0.306,-0.004L0.306,-0.004L0.306,-0.004L0.306,-0.003L0.306,-0.003L0.306,-0.003L0.305,-0.003L0.305,-0.003L0.305,-0.003L0.305,-0.002L0.305,-0.002L0.305,-0.002L0.304,-0.002L0.304,-0.002L0.304,-0.002L0.304,-0.002L0.304,-0.001L0.303,-0.001L0.303,-0.001L0.303,-0.001L0.303,-0.001L0.303,-0.001L0.302,-0.001L0.302,-0.001L0.302,-0.001L0.302,-0.001L0.301,0L0.301,0L0.301,0L0.301,0L0.3,0L0.3,0L0.3,0L0.3,0L0.299,0L0.299,0L0.299,0L0.299,0L0.298,0L0.298,0L0.018,0L0.018,0L0.017,0L0.017,0L0.017,0L0.017,0L0.016,0L0.016,0L0.016,0L0.016,0L0.015,0L0.015,0L0.015,0L0.015,0L0.014,-0.001L0.014,-0.001L0.014,-0.001L0.014,-0.001L0.013,-0.001L0.013,-0.001L0.013,-0.001L0.013,-0.001L0.013,-0.001L0.012,-0.001L0.012,-0.002L0.012,-0.002L0.012,-0.002L0.012,-0.002L0.011,-0.002L0.011,-0.002L0.011,-0.002L0.011,-0.003L0.011,-0.003L0.011,-0.003L0.01,-0.003L0.01,-0.003L0.01,-0.003L0.01,-0.004L0.01,-0.004L0.01,-0.004L0.01,-0.004L0.009,-0.004L0.009,-0.005L0.009,-0.005L0.009,-0.005L0.009,-0.005L0.009,-0.005L0.009,-0.006L0.009,-0.006L0.009,-0.006L0.009,-0.006L0.008,-0.007L0.008,-0.007L0.008,-0.007L0.008,-0.007L0.008,-0.008L0.008,-0.008L0.008,-0.008L0.008,-0.008L0.008,-0.009L0.008,-0.009L0.008,-0.009L0.008,-0.009L0.008,-0.01L0.008,-0.01L0.008,-0.312L0.099,-0.632L0.099,-0.632L0.099,-0.632L0.099,-0.633L0.099,-0.633L0.1,-0.633L0.1,-0.633L0.1,-0.634L0.1,-0.634L0.1,-0.634L0.1,-0.634L0.1,-0.634L0.1,-0.635L0.1,-0.635L0.101,-0.635L0.101,-0.635L0.101,-0.635L0.101,-0.636L0.101,-0.636L0.101,-0.636L0.101,-0.636L0.102,-0.636L0.102,-0.636L0.102,-0.637L0.102,-0.637L0.102,-0.637L0.102,-0.637L0.103,-0.637L0.103,-0.637L0.103,-0.637L0.103,-0.638L0.103,-0.638L0.103,-0.638L0.104,-0.638L0.104,-0.638L0.104,-0.638L0.104,-0.638L0.104,-0.638L0.104,-0.639L0.105,-0.639L0.105,-0.639L0.105,-0.639L0.105,-0.639L0.105,-0.639L0.106,-0.639L0.106,-0.639L0.106,-0.639L0.106,-0.639L0.106,-0.639L0.107,-0.64L0.107,-0.64L0.107,-0.64L0.107,-0.64L0.108,-0.64L0.108,-0.64L0.108,-0.64L0.108,-0.64L0.108,-0.64L0.109,-0.64L0.109,-0.64L0.109,-0.64L0.109,-0.64L0.11,-0.64L0.11,-0.64L0.11,-0.64L0.352,-0.64ZM0.11,-0.63L0.11,-0.63L0.11,-0.63L0.11,-0.63C0.11,-0.63 0.11,-0.63 0.11,-0.63L0.11,-0.63L0.11,-0.63L0.11,-0.63L0.11,-0.63L0.11,-0.63L0.11,-0.63L0.109,-0.63L0.109,-0.63L0.109,-0.63L0.109,-0.63L0.109,-0.63L0.109,-0.629L0.109,-0.629L0.109,-0.629L0.109,-0.629L0.109,-0.629L0.109,-0.629L0.109,-0.629L0.109,-0.629L0.109,-0.629L0.109,-0.629L0.109,-0.629L0.109,-0.629L0.109,-0.629L0.109,-0.629L0.109,-0.629L0.109,-0.629L0.018,-0.311L0.018,-0.01L0.298,-0.01L0.298,-0.101L0.3,-0.278L0.3,-0.28L0.3,-0.282L0.301,-0.283L0.302,-0.285L0.303,-0.286L0.305,-0.287L0.307,-0.288L0.308,-0.288L0.31,-0.288L0.324,-0.288L0.328,-0.286L0.331,-0.283L0.332,-0.278L0.334,-0.012L0.46,-0.012L0.462,-0.278L0.462,-0.28L0.462,-0.281L0.463,-0.283L0.464,-0.284L0.465,-0.285L0.466,-0.286L0.467,-0.287L0.469,-0.288L0.47,-0.288L0.472,-0.288L0.485,-0.288L0.49,-0.286L0.493,-0.282L0.493,-0.278L0.496,-0.101L0.496,-0.01L0.776,-0.01L0.776,-0.311L0.684,-0.63L0.684,-0.63L0.684,-0.63L0.684,-0.63L0.684,-0.63L0.684,-0.63L0.684,-0.63L0.684,-0.63L0.684,-0.63L0.683,-0.63L0.683,-0.63L0.683,-0.63L0.683,-0.63L0.442,-0.63L0.442,-0.63L0.442,-0.63L0.442,-0.63L0.442,-0.63L0.441,-0.63L0.441,-0.63L0.441,-0.63L0.441,-0.63L0.441,-0.63L0.441,-0.629L0.441,-0.629L0.441,-0.629L0.441,-0.629L0.441,-0.629L0.441,-0.629L0.441,-0.629L0.441,-0.628L0.407,-0.52L0.406,-0.518L0.405,-0.517L0.404,-0.516L0.403,-0.514L0.401,-0.514L0.4,-0.513L0.398,-0.513L0.396,-0.513L0.394,-0.513L0.393,-0.514L0.391,-0.514L0.39,-0.516L0.389,-0.517L0.388,-0.518L0.387,-0.52L0.352,-0.629L0.352,-0.63L0.11,-0.63ZM0.46,-0.012L0.461,-0.012L0.46,-0.012ZM0.11,-0.63L0.11,-0.63L0.11,-0.63ZM0.441,-0.63L0.441,-0.63L0.441,-0.63Z" style="fill:rgb(26,0,255);"/>
                        </g>
                        <g transform="matrix(64,0,0,64,9824.99,14415.5)">
                            <path d="M0.299,-0.64L0.309,-0.632L0.309,-0.63L0.309,-0.404L0.316,-0.394L0.323,-0.404L0.323,-0.63L0.323,-0.63L0.323,-0.631L0.323,-0.631L0.323,-0.631L0.323,-0.631L0.323,-0.632L0.323,-0.632L0.323,-0.632L0.323,-0.632L0.323,-0.633L0.323,-0.633L0.323,-0.633L0.323,-0.633L0.324,-0.634L0.324,-0.634L0.324,-0.634L0.324,-0.634L0.324,-0.635L0.324,-0.635L0.324,-0.635L0.324,-0.635L0.324,-0.635L0.324,-0.636L0.325,-0.636L0.325,-0.636L0.325,-0.636L0.325,-0.636L0.325,-0.637L0.325,-0.637L0.325,-0.637L0.326,-0.637L0.326,-0.637L0.326,-0.637L0.326,-0.638L0.326,-0.638L0.326,-0.638L0.327,-0.638L0.327,-0.638L0.327,-0.638L0.327,-0.638L0.327,-0.639L0.328,-0.639L0.328,-0.639L0.328,-0.639L0.328,-0.639L0.328,-0.639L0.329,-0.639L0.329,-0.639L0.329,-0.639L0.329,-0.639L0.33,-0.64L0.33,-0.64L0.33,-0.64L0.33,-0.64L0.331,-0.64L0.331,-0.64L0.331,-0.64L0.331,-0.64L0.332,-0.64L0.332,-0.64L0.332,-0.64L0.332,-0.64L0.333,-0.64L0.333,-0.64L0.614,-0.64L0.624,-0.632L0.624,-0.63L0.624,-0.327L0.466,-0.136L0.466,-0.01L0.466,-0.01L0.466,-0.009L0.466,-0.009L0.466,-0.009L0.466,-0.009L0.466,-0.008L0.466,-0.008L0.466,-0.008L0.466,-0.008L0.466,-0.007L0.466,-0.007L0.466,-0.007L0.466,-0.007L0.465,-0.006L0.465,-0.006L0.465,-0.006L0.465,-0.006L0.465,-0.005L0.465,-0.005L0.465,-0.005L0.465,-0.005L0.465,-0.005L0.465,-0.004L0.464,-0.004L0.464,-0.004L0.464,-0.004L0.464,-0.004L0.464,-0.003L0.464,-0.003L0.464,-0.003L0.464,-0.003L0.463,-0.003L0.463,-0.003L0.463,-0.002L0.463,-0.002L0.463,-0.002L0.463,-0.002L0.462,-0.002L0.462,-0.002L0.462,-0.002L0.462,-0.001L0.462,-0.001L0.461,-0.001L0.461,-0.001L0.461,-0.001L0.461,-0.001L0.461,-0.001L0.461,-0.001L0.46,-0.001L0.46,-0.001L0.46,0L0.46,0L0.459,0L0.459,0L0.459,0L0.459,0L0.459,0L0.458,0L0.458,0L0.458,0L0.458,0L0.457,0L0.457,0L0.457,0L0.176,0L0.176,0L0.175,0L0.175,0L0.175,0L0.175,0L0.174,0L0.174,0L0.174,0L0.174,0L0.173,0L0.173,0L0.173,0L0.173,0L0.172,-0.001L0.172,-0.001L0.172,-0.001L0.172,-0.001L0.171,-0.001L0.171,-0.001L0.171,-0.001L0.171,-0.001L0.171,-0.001L0.17,-0.001L0.17,-0.002L0.17,-0.002L0.17,-0.002L0.17,-0.002L0.169,-0.002L0.169,-0.002L0.169,-0.002L0.169,-0.003L0.169,-0.003L0.169,-0.003L0.168,-0.003L0.168,-0.003L0.168,-0.003L0.168,-0.004L0.168,-0.004L0.168,-0.004L0.168,-0.004L0.167,-0.004L0.167,-0.005L0.167,-0.005L0.167,-0.005L0.167,-0.005L0.167,-0.005L0.167,-0.006L0.167,-0.006L0.167,-0.006L0.167,-0.006L0.166,-0.007L0.166,-0.007L0.166,-0.007L0.166,-0.007L0.166,-0.008L0.166,-0.008L0.166,-0.008L0.166,-0.008L0.166,-0.009L0.166,-0.009L0.166,-0.009L0.166,-0.009L0.166,-0.01L0.166,-0.01L0.166,-0.136L0.008,-0.327L0.008,-0.63L0.008,-0.63L0.008,-0.631L0.008,-0.631L0.008,-0.631L0.008,-0.631L0.008,-0.632L0.008,-0.632L0.008,-0.632L0.008,-0.632L0.008,-0.633L0.008,-0.633L0.008,-0.633L0.008,-0.633L0.009,-0.634L0.009,-0.634L0.009,-0.634L0.009,-0.634L0.009,-0.635L0.009,-0.635L0.009,-0.635L0.009,-0.635L0.009,-0.635L0.009,-0.636L0.01,-0.636L0.01,-0.636L0.01,-0.636L0.01,-0.636L0.01,-0.637L0.01,-0.637L0.01,-0.637L0.011,-0.637L0.011,-0.637L0.011,-0.637L0.011,-0.638L0.011,-0.638L0.011,-0.638L0.012,-0.638L0.012,-0.638L0.012,-0.638L0.012,-0.638L0.012,-0.639L0.013,-0.639L0.013,-0.639L0.013,-0.639L0.013,-0.639L0.013,-0.639L0.014,-0.639L0.014,-0.639L0.014,-0.639L0.014,-0.639L0.015,-0.64L0.015,-0.64L0.015,-0.64L0.015,-0.64L0.016,-0.64L0.016,-0.64L0.016,-0.64L0.016,-0.64L0.017,-0.64L0.017,-0.64L0.017,-0.64L0.017,-0.64L0.018,-0.64L0.018,-0.64L0.299,-0.64ZM0.018,-0.63L0.018,-0.331L0.174,-0.143L0.176,-0.137L0.176,-0.136L0.176,-0.01L0.456,-0.01L0.456,-0.136L0.456,-0.137L0.456,-0.139L0.457,-0.14L0.457,-0.141L0.458,-0.143L0.614,-0.331L0.614,-0.63L0.333,-0.63L0.333,-0.404L0.333,-0.402L0.333,-0.401L0.332,-0.399L0.331,-0.398L0.324,-0.388L0.323,-0.387L0.322,-0.386L0.321,-0.385L0.32,-0.384L0.318,-0.384L0.317,-0.384L0.315,-0.384L0.314,-0.384L0.312,-0.384L0.311,-0.385L0.31,-0.386L0.309,-0.387L0.308,-0.388L0.301,-0.398L0.3,-0.399L0.299,-0.401L0.299,-0.402L0.299,-0.404L0.299,-0.63L0.018,-0.63Z" style="fill:rgb(26,0,255);"/>
                        </g>
                        <g transform="matrix(64,0,0,64,9865.44,14415.5)">
                            <path d="M0.584,-0.01L0.584,-0.233C0.584,-0.239 0.58,-0.244 0.574,-0.244L0.474,-0.244L0.359,-0.176L0.342,-0.176L0.584,-0.334L0.584,-0.5C0.584,-0.59 0.534,-0.64 0.444,-0.64L0.148,-0.64C0.058,-0.64 0.008,-0.59 0.008,-0.5L0.008,-0.406C0.008,-0.401 0.012,-0.396 0.018,-0.396L0.119,-0.396L0.233,-0.464L0.25,-0.464L0.01,-0.31L0.01,-0.01C0.01,-0.004 0.014,0 0.02,0L0.574,0C0.58,0 0.584,-0.004 0.584,-0.01Z" style="fill:rgb(26,0,255);fill-rule:nonzero;"/>
                        </g>
                        <g transform="matrix(64,0,0,64,9903.33,14415.5)">
                            <path d="M0.484,-0.64L0.148,-0.64C0.058,-0.64 0.008,-0.59 0.008,-0.5L0.008,-0.14C0.008,-0.05 0.058,0 0.148,0L0.484,0C0.574,0 0.624,-0.05 0.624,-0.14L0.624,-0.5C0.624,-0.59 0.574,-0.64 0.484,-0.64ZM0.323,-0.464L0.323,-0.366L0.309,-0.332L0.309,-0.464L0.323,-0.464ZM0.309,-0.176L0.309,-0.286L0.323,-0.32L0.323,-0.176L0.309,-0.176Z" style="fill:rgb(26,0,255);fill-rule:nonzero;"/>
                        </g>
                        <g transform="matrix(64,0,0,64,9943.77,14415.5)">
                            <path d="M0.562,-0.24L0.459,-0.24L0.459,-0.63C0.459,-0.636 0.455,-0.64 0.45,-0.64L0.07,-0.64C0.065,-0.64 0.061,-0.636 0.061,-0.63L0.061,-0.406C0.061,-0.4 0.065,-0.396 0.07,-0.396L0.159,-0.396L0.159,-0.24L0.018,-0.24C0.012,-0.24 0.008,-0.236 0.008,-0.23L0.008,-0.01C0.008,-0.004 0.012,0 0.018,0L0.562,0C0.567,0 0.571,-0.004 0.571,-0.01L0.571,-0.23C0.571,-0.236 0.567,-0.24 0.562,-0.24Z" style="fill:rgb(26,0,255);fill-rule:nonzero;"/>
                        </g>
                        <g transform="matrix(64,0,0,64,9980.83,14415.5)">
                            <path d="M0.484,-0.64L0.148,-0.64C0.058,-0.64 0.008,-0.59 0.008,-0.5L0.008,-0.394C0.008,-0.304 0.058,-0.254 0.148,-0.254L0.323,-0.254L0.323,-0.176L0.309,-0.176L0.309,-0.23C0.309,-0.236 0.305,-0.24 0.299,-0.24L0.018,-0.24C0.012,-0.24 0.008,-0.236 0.008,-0.23L0.008,-0.14C0.008,-0.05 0.058,0 0.148,0L0.484,0C0.574,0 0.624,-0.05 0.624,-0.14L0.624,-0.5C0.624,-0.59 0.574,-0.64 0.484,-0.64ZM0.309,-0.39L0.309,-0.464L0.323,-0.464L0.323,-0.39L0.309,-0.39Z" style="fill:rgb(26,0,255);fill-rule:nonzero;"/>
                        </g>
                        <g transform="matrix(64,0,0,64,10021.3,14415.5)">
                            <path d="M0.298,-0.64L0.308,-0.632L0.308,-0.63L0.308,-0.01L0.308,-0.01L0.308,-0.009L0.308,-0.009L0.308,-0.009L0.308,-0.009L0.308,-0.008L0.308,-0.008L0.308,-0.008L0.308,-0.008L0.308,-0.007L0.308,-0.007L0.308,-0.007L0.308,-0.007L0.307,-0.006L0.307,-0.006L0.307,-0.006L0.307,-0.006L0.307,-0.005L0.307,-0.005L0.307,-0.005L0.307,-0.005L0.307,-0.005L0.307,-0.004L0.306,-0.004L0.306,-0.004L0.306,-0.004L0.306,-0.004L0.306,-0.003L0.306,-0.003L0.306,-0.003L0.305,-0.003L0.305,-0.003L0.305,-0.003L0.305,-0.002L0.305,-0.002L0.305,-0.002L0.304,-0.002L0.304,-0.002L0.304,-0.002L0.304,-0.002L0.304,-0.001L0.303,-0.001L0.303,-0.001L0.303,-0.001L0.303,-0.001L0.303,-0.001L0.302,-0.001L0.302,-0.001L0.302,-0.001L0.302,-0.001L0.301,0L0.301,0L0.301,0L0.301,0L0.3,0L0.3,0L0.3,0L0.3,0L0.299,0L0.299,0L0.299,0L0.299,0L0.298,0L0.298,0L0.018,0L0.018,0L0.017,0L0.017,0L0.017,0L0.017,0L0.016,0L0.016,0L0.016,0L0.016,0L0.015,0L0.015,0L0.015,0L0.015,0L0.014,-0.001L0.014,-0.001L0.014,-0.001L0.014,-0.001L0.013,-0.001L0.013,-0.001L0.013,-0.001L0.013,-0.001L0.013,-0.001L0.012,-0.001L0.012,-0.002L0.012,-0.002L0.012,-0.002L0.012,-0.002L0.011,-0.002L0.011,-0.002L0.011,-0.002L0.011,-0.003L0.011,-0.003L0.011,-0.003L0.01,-0.003L0.01,-0.003L0.01,-0.003L0.01,-0.004L0.01,-0.004L0.01,-0.004L0.01,-0.004L0.009,-0.004L0.009,-0.005L0.009,-0.005L0.009,-0.005L0.009,-0.005L0.009,-0.005L0.009,-0.006L0.009,-0.006L0.009,-0.006L0.009,-0.006L0.008,-0.007L0.008,-0.007L0.008,-0.007L0.008,-0.007L0.008,-0.008L0.008,-0.008L0.008,-0.008L0.008,-0.008L0.008,-0.009L0.008,-0.009L0.008,-0.009L0.008,-0.009L0.008,-0.01L0.008,-0.01L0.008,-0.63L0.008,-0.63L0.008,-0.631L0.008,-0.631L0.008,-0.631L0.008,-0.631L0.008,-0.632L0.008,-0.632L0.008,-0.632L0.008,-0.632L0.008,-0.633L0.008,-0.633L0.008,-0.633L0.008,-0.633L0.009,-0.634L0.009,-0.634L0.009,-0.634L0.009,-0.634L0.009,-0.635L0.009,-0.635L0.009,-0.635L0.009,-0.635L0.009,-0.635L0.009,-0.636L0.01,-0.636L0.01,-0.636L0.01,-0.636L0.01,-0.636L0.01,-0.637L0.01,-0.637L0.01,-0.637L0.011,-0.637L0.011,-0.637L0.011,-0.637L0.011,-0.638L0.011,-0.638L0.011,-0.638L0.012,-0.638L0.012,-0.638L0.012,-0.638L0.012,-0.638L0.012,-0.639L0.013,-0.639L0.013,-0.639L0.013,-0.639L0.013,-0.639L0.013,-0.639L0.014,-0.639L0.014,-0.639L0.014,-0.639L0.014,-0.639L0.015,-0.64L0.015,-0.64L0.015,-0.64L0.015,-0.64L0.016,-0.64L0.016,-0.64L0.016,-0.64L0.016,-0.64L0.017,-0.64L0.017,-0.64L0.017,-0.64L0.017,-0.64L0.018,-0.64L0.018,-0.64L0.298,-0.64ZM0.018,-0.63L0.018,-0.01L0.298,-0.01L0.298,-0.63L0.018,-0.63Z" style="fill:rgb(26,0,255);"/>
                        </g>
                        <g transform="matrix(64,0,0,64,10041.5,14415.5)">
                            <path d="M0.262,-0.64L0.273,-0.633L0.39,-0.416L0.402,-0.416L0.341,-0.54L0.341,-0.63L0.341,-0.63L0.341,-0.631L0.341,-0.631L0.341,-0.631L0.341,-0.631L0.341,-0.632L0.341,-0.632L0.341,-0.632L0.341,-0.632L0.341,-0.633L0.341,-0.633L0.341,-0.633L0.341,-0.633L0.342,-0.634L0.342,-0.634L0.342,-0.634L0.342,-0.634L0.342,-0.635L0.342,-0.635L0.342,-0.635L0.342,-0.635L0.342,-0.635L0.342,-0.636L0.343,-0.636L0.343,-0.636L0.343,-0.636L0.343,-0.636L0.343,-0.637L0.343,-0.637L0.343,-0.637L0.343,-0.637L0.344,-0.637L0.344,-0.637L0.344,-0.638L0.344,-0.638L0.344,-0.638L0.344,-0.638L0.345,-0.638L0.345,-0.638L0.345,-0.638L0.345,-0.639L0.345,-0.639L0.346,-0.639L0.346,-0.639L0.346,-0.639L0.346,-0.639L0.346,-0.639L0.346,-0.639L0.347,-0.639L0.347,-0.639L0.347,-0.64L0.347,-0.64L0.348,-0.64L0.348,-0.64L0.348,-0.64L0.348,-0.64L0.348,-0.64L0.349,-0.64L0.349,-0.64L0.349,-0.64L0.349,-0.64L0.35,-0.64L0.35,-0.64L0.35,-0.64L0.612,-0.64L0.622,-0.632L0.622,-0.63L0.622,-0.01L0.622,-0.01L0.622,-0.009L0.622,-0.009L0.622,-0.009L0.622,-0.009L0.622,-0.008L0.622,-0.008L0.622,-0.008L0.622,-0.008L0.622,-0.007L0.622,-0.007L0.622,-0.007L0.622,-0.007L0.621,-0.006L0.621,-0.006L0.621,-0.006L0.621,-0.006L0.621,-0.005L0.621,-0.005L0.621,-0.005L0.621,-0.005L0.621,-0.005L0.621,-0.004L0.62,-0.004L0.62,-0.004L0.62,-0.004L0.62,-0.004L0.62,-0.003L0.62,-0.003L0.62,-0.003L0.619,-0.003L0.619,-0.003L0.619,-0.003L0.619,-0.002L0.619,-0.002L0.619,-0.002L0.618,-0.002L0.618,-0.002L0.618,-0.002L0.618,-0.002L0.618,-0.001L0.617,-0.001L0.617,-0.001L0.617,-0.001L0.617,-0.001L0.617,-0.001L0.616,-0.001L0.616,-0.001L0.616,-0.001L0.616,-0.001L0.615,0L0.615,0L0.615,0L0.615,0L0.614,0L0.614,0L0.614,0L0.614,0L0.613,0L0.613,0L0.613,0L0.613,0L0.612,0L0.612,0L0.367,0L0.367,0L0.366,0L0.366,0L0.366,0L0.366,0L0.365,0L0.365,0L0.365,0L0.365,0L0.365,0L0.364,0L0.364,0L0.364,0L0.364,0L0.364,0L0.363,0L0.363,0L0.363,-0.001L0.363,-0.001L0.363,-0.001L0.362,-0.001L0.362,-0.001L0.362,-0.001L0.362,-0.001L0.362,-0.001L0.362,-0.001L0.361,-0.001L0.361,-0.001L0.361,-0.001L0.361,-0.002L0.361,-0.002L0.361,-0.002L0.36,-0.002L0.36,-0.002L0.36,-0.002L0.36,-0.002L0.36,-0.002L0.36,-0.002L0.359,-0.003L0.359,-0.003L0.359,-0.003L0.359,-0.003L0.359,-0.003L0.359,-0.003L0.359,-0.003L0.358,-0.004L0.358,-0.004L0.358,-0.004L0.358,-0.004L0.358,-0.004L0.357,-0.005L0.357,-0.005L0.357,-0.006L0.357,-0.006L0.356,-0.007L0.356,-0.007L0.236,-0.23L0.225,-0.23L0.288,-0.1L0.288,-0.01L0.288,-0.01L0.288,-0.009L0.288,-0.009L0.288,-0.009L0.288,-0.009L0.288,-0.008L0.288,-0.008L0.288,-0.008L0.288,-0.008L0.288,-0.007L0.288,-0.007L0.288,-0.007L0.288,-0.007L0.287,-0.006L0.287,-0.006L0.287,-0.006L0.287,-0.006L0.287,-0.005L0.287,-0.005L0.287,-0.005L0.287,-0.005L0.287,-0.005L0.287,-0.004L0.286,-0.004L0.286,-0.004L0.286,-0.004L0.286,-0.004L0.286,-0.003L0.286,-0.003L0.286,-0.003L0.285,-0.003L0.285,-0.003L0.285,-0.003L0.285,-0.002L0.285,-0.002L0.285,-0.002L0.284,-0.002L0.284,-0.002L0.284,-0.002L0.284,-0.002L0.284,-0.001L0.283,-0.001L0.283,-0.001L0.283,-0.001L0.283,-0.001L0.283,-0.001L0.282,-0.001L0.282,-0.001L0.282,-0.001L0.282,-0.001L0.281,0L0.281,0L0.281,0L0.281,0L0.28,0L0.28,0L0.28,0L0.28,0L0.279,0L0.279,0L0.279,0L0.279,0L0.278,0L0.278,0L0.018,0L0.018,0L0.017,0L0.017,0L0.017,0L0.017,0L0.016,0L0.016,0L0.016,0L0.016,0L0.015,0L0.015,0L0.015,0L0.015,0L0.014,-0.001L0.014,-0.001L0.014,-0.001L0.014,-0.001L0.013,-0.001L0.013,-0.001L0.013,-0.001L0.013,-0.001L0.013,-0.001L0.012,-0.001L0.012,-0.002L0.012,-0.002L0.012,-0.002L0.012,-0.002L0.011,-0.002L0.011,-0.002L0.011,-0.002L0.011,-0.003L0.011,-0.003L0.011,-0.003L0.01,-0.003L0.01,-0.003L0.01,-0.003L0.01,-0.004L0.01,-0.004L0.01,-0.004L0.01,-0.004L0.009,-0.004L0.009,-0.005L0.009,-0.005L0.009,-0.005L0.009,-0.005L0.009,-0.005L0.009,-0.006L0.009,-0.006L0.009,-0.006L0.009,-0.006L0.008,-0.007L0.008,-0.007L0.008,-0.007L0.008,-0.007L0.008,-0.008L0.008,-0.008L0.008,-0.008L0.008,-0.008L0.008,-0.009L0.008,-0.009L0.008,-0.009L0.008,-0.009L0.008,-0.01L0.008,-0.01L0.008,-0.63L0.008,-0.63L0.008,-0.631L0.008,-0.631L0.008,-0.631L0.008,-0.631L0.008,-0.632L0.008,-0.632L0.008,-0.632L0.008,-0.632L0.008,-0.633L0.008,-0.633L0.008,-0.633L0.008,-0.633L0.009,-0.634L0.009,-0.634L0.009,-0.634L0.009,-0.634L0.009,-0.635L0.009,-0.635L0.009,-0.635L0.009,-0.635L0.009,-0.635L0.009,-0.636L0.01,-0.636L0.01,-0.636L0.01,-0.636L0.01,-0.636L0.01,-0.637L0.01,-0.637L0.01,-0.637L0.011,-0.637L0.011,-0.637L0.011,-0.637L0.011,-0.638L0.011,-0.638L0.011,-0.638L0.012,-0.638L0.012,-0.638L0.012,-0.638L0.012,-0.638L0.012,-0.639L0.013,-0.639L0.013,-0.639L0.013,-0.639L0.013,-0.639L0.013,-0.639L0.014,-0.639L0.014,-0.639L0.014,-0.639L0.014,-0.639L0.015,-0.64L0.015,-0.64L0.015,-0.64L0.015,-0.64L0.016,-0.64L0.016,-0.64L0.016,-0.64L0.016,-0.64L0.017,-0.64L0.017,-0.64L0.017,-0.64L0.017,-0.64L0.018,-0.64L0.018,-0.64L0.262,-0.64ZM0.018,-0.63L0.018,-0.01L0.278,-0.01L0.278,-0.098L0.216,-0.226L0.215,-0.227L0.215,-0.229L0.215,-0.23L0.215,-0.232L0.215,-0.233L0.216,-0.235L0.217,-0.236L0.218,-0.237L0.219,-0.238L0.22,-0.239L0.222,-0.24L0.223,-0.24L0.225,-0.24L0.238,-0.24L0.242,-0.238L0.245,-0.235L0.365,-0.012L0.367,-0.01L0.612,-0.01L0.612,-0.63L0.351,-0.63L0.351,-0.542L0.411,-0.421L0.412,-0.416L0.412,-0.414L0.412,-0.413L0.411,-0.411L0.41,-0.41L0.409,-0.409L0.408,-0.408L0.407,-0.407L0.405,-0.406L0.404,-0.406L0.402,-0.406L0.39,-0.406L0.388,-0.406L0.387,-0.406L0.385,-0.407L0.384,-0.408L0.383,-0.409L0.382,-0.41L0.381,-0.411L0.264,-0.628L0.264,-0.628L0.264,-0.628L0.264,-0.628L0.264,-0.628L0.264,-0.628L0.264,-0.628L0.264,-0.628L0.264,-0.629L0.264,-0.629L0.263,-0.629L0.263,-0.629L0.263,-0.629L0.263,-0.629C0.263,-0.629 0.263,-0.629 0.263,-0.629L0.263,-0.629L0.263,-0.629L0.263,-0.629L0.263,-0.629L0.263,-0.629L0.263,-0.629L0.263,-0.629L0.263,-0.629L0.263,-0.629L0.263,-0.629L0.263,-0.629L0.263,-0.63L0.263,-0.63L0.263,-0.63L0.262,-0.63L0.262,-0.63L0.262,-0.63L0.262,-0.63L0.262,-0.63L0.262,-0.63L0.262,-0.63L0.262,-0.63L0.262,-0.63L0.262,-0.63L0.262,-0.63L0.262,-0.63L0.262,-0.63L0.262,-0.63L0.018,-0.63ZM0.262,-0.63L0.262,-0.63L0.262,-0.63L0.262,-0.63ZM0.262,-0.63L0.262,-0.63L0.262,-0.63L0.262,-0.63ZM0.262,-0.63L0.262,-0.63L0.262,-0.63L0.262,-0.63ZM0.262,-0.63L0.262,-0.63L0.262,-0.63L0.262,-0.63Z" style="fill:rgb(26,0,255);"/>
                        </g>
                        <g transform="matrix(64,0,0,64,9774.43,14457.5)">
                            <path d="M0.008,-0.312L0.008,-0.01C0.008,-0.004 0.012,0 0.018,0L0.298,0C0.304,0 0.308,-0.004 0.308,-0.01L0.308,-0.101L0.31,-0.278L0.322,-0.278L0.324,-0.011C0.324,-0.006 0.328,-0.002 0.334,-0.002L0.46,-0.002C0.466,-0.002 0.47,-0.006 0.47,-0.011L0.472,-0.278L0.483,-0.278L0.486,-0.101L0.486,-0.01C0.486,-0.004 0.49,0 0.495,0L0.776,0C0.782,0 0.786,-0.004 0.786,-0.01L0.786,-0.312L0.694,-0.632C0.693,-0.637 0.689,-0.64 0.683,-0.64L0.442,-0.64C0.436,-0.64 0.433,-0.637 0.431,-0.632L0.397,-0.523L0.362,-0.632C0.361,-0.637 0.358,-0.64 0.352,-0.64L0.11,-0.64C0.105,-0.64 0.101,-0.637 0.099,-0.632L0.008,-0.312Z" style="fill:rgb(26,0,255);fill-rule:nonzero;"/>
                        </g>
                        <g transform="matrix(64,0,0,64,9825.25,14457.5)">
                            <path d="M0.614,-0.64L0.333,-0.64C0.327,-0.64 0.323,-0.636 0.323,-0.63L0.323,-0.176L0.309,-0.176L0.309,-0.63C0.309,-0.636 0.305,-0.64 0.299,-0.64L0.018,-0.64C0.012,-0.64 0.008,-0.636 0.008,-0.63L0.008,-0.14C0.008,-0.05 0.058,0 0.148,0L0.484,0C0.574,0 0.624,-0.05 0.624,-0.14L0.624,-0.63C0.624,-0.636 0.62,-0.64 0.614,-0.64Z" style="fill:rgb(26,0,255);fill-rule:nonzero;"/>
                        </g>
                        <g transform="matrix(64,0,0,64,9865.69,14457.5)">
                            <path d="M0.148,0L0.482,0C0.564,0 0.624,-0.06 0.624,-0.142L0.624,-0.247C0.624,-0.338 0.574,-0.387 0.484,-0.387L0.309,-0.387L0.309,-0.464L0.323,-0.464L0.323,-0.411C0.323,-0.406 0.327,-0.402 0.333,-0.402L0.614,-0.402C0.62,-0.402 0.624,-0.406 0.624,-0.412L0.624,-0.5C0.624,-0.59 0.574,-0.64 0.484,-0.64L0.148,-0.64C0.058,-0.64 0.008,-0.59 0.008,-0.5L0.008,-0.39C0.008,-0.299 0.058,-0.25 0.148,-0.25L0.323,-0.25L0.323,-0.176L0.309,-0.176L0.309,-0.226C0.309,-0.231 0.305,-0.235 0.299,-0.235L0.018,-0.235C0.012,-0.235 0.008,-0.23 0.008,-0.224L0.008,-0.14C0.008,-0.05 0.058,0 0.148,0Z" style="fill:rgb(26,0,255);fill-rule:nonzero;"/>
                        </g>
                        <g transform="matrix(64,0,0,64,9906.14,14457.5)">
                            <path d="M0.008,-0.63L0.008,-0.01C0.008,-0.004 0.012,0 0.018,0L0.298,0C0.304,0 0.308,-0.004 0.308,-0.01L0.308,-0.63C0.308,-0.636 0.304,-0.64 0.298,-0.64L0.018,-0.64C0.012,-0.64 0.008,-0.636 0.008,-0.63Z" style="fill:rgb(26,0,255);fill-rule:nonzero;"/>
                        </g>
                        <g transform="matrix(64,0,0,64,9926.37,14457.5)">
                            <path d="M0.614,-0.321L0.333,-0.321C0.327,-0.321 0.323,-0.317 0.323,-0.311L0.323,-0.176L0.309,-0.176L0.309,-0.464L0.323,-0.464L0.323,-0.345C0.323,-0.339 0.327,-0.335 0.333,-0.335L0.614,-0.335C0.62,-0.335 0.624,-0.339 0.624,-0.345L0.624,-0.5C0.624,-0.59 0.574,-0.64 0.484,-0.64L0.148,-0.64C0.058,-0.64 0.008,-0.59 0.008,-0.5L0.008,-0.14C0.008,-0.05 0.058,0 0.148,0L0.484,0C0.574,0 0.624,-0.05 0.624,-0.14L0.624,-0.311C0.624,-0.317 0.62,-0.321 0.614,-0.321Z" style="fill:rgb(26,0,255);fill-rule:nonzero;"/>
                        </g>
                    </g>
                </g>
                <g transform="matrix(2.08174,-6.26711e-20,7.07734e-21,1.50928,14615,15166.9)">
                    <g transform="matrix(72.1718,0,0,226.411,82.7075,242.427)">
                        <path d="M0.551,-0.176C0.546,-0.149 0.537,-0.123 0.524,-0.1C0.51,-0.077 0.494,-0.057 0.474,-0.04C0.454,-0.023 0.431,-0.009 0.404,0C0.377,0.009 0.348,0.014 0.315,0.014C0.28,0.014 0.248,0.008 0.217,-0.003C0.186,-0.014 0.158,-0.031 0.135,-0.053C0.112,-0.074 0.093,-0.101 0.08,-0.132C0.066,-0.163 0.059,-0.199 0.059,-0.24L0.059,-0.252C0.059,-0.292 0.066,-0.328 0.08,-0.36C0.093,-0.392 0.112,-0.419 0.135,-0.441C0.158,-0.463 0.186,-0.48 0.217,-0.492C0.248,-0.504 0.28,-0.51 0.315,-0.51C0.346,-0.51 0.375,-0.505 0.402,-0.496C0.429,-0.487 0.452,-0.474 0.473,-0.457C0.493,-0.44 0.509,-0.419 0.523,-0.396C0.536,-0.373 0.544,-0.347 0.549,-0.32L0.471,-0.302C0.469,-0.319 0.464,-0.336 0.457,-0.353C0.449,-0.369 0.439,-0.383 0.426,-0.396C0.413,-0.408 0.397,-0.418 0.378,-0.425C0.359,-0.432 0.338,-0.436 0.313,-0.436C0.289,-0.436 0.267,-0.432 0.246,-0.423C0.225,-0.413 0.206,-0.401 0.19,-0.385C0.174,-0.368 0.162,-0.349 0.153,-0.326C0.143,-0.303 0.139,-0.279 0.139,-0.252L0.139,-0.24C0.139,-0.212 0.143,-0.187 0.153,-0.165C0.162,-0.142 0.174,-0.123 0.19,-0.108C0.206,-0.093 0.225,-0.081 0.246,-0.073C0.267,-0.064 0.29,-0.06 0.315,-0.06C0.34,-0.06 0.361,-0.064 0.38,-0.072C0.398,-0.079 0.413,-0.089 0.427,-0.102C0.44,-0.114 0.45,-0.128 0.458,-0.144C0.465,-0.16 0.47,-0.177 0.473,-0.194L0.551,-0.176Z" style="fill:rgb(26,0,255);fill-rule:nonzero;"/>
                    </g>
                    <g transform="matrix(72.1718,0,0,226.411,126.877,242.427)">
                        <path d="M0.555,-0.242C0.555,-0.201 0.548,-0.164 0.535,-0.133C0.521,-0.101 0.503,-0.074 0.48,-0.053C0.457,-0.031 0.431,-0.014 0.401,-0.003C0.37,0.008 0.339,0.014 0.306,0.014C0.273,0.014 0.241,0.008 0.211,-0.003C0.181,-0.014 0.155,-0.031 0.132,-0.053C0.109,-0.074 0.091,-0.101 0.078,-0.133C0.064,-0.164 0.057,-0.201 0.057,-0.242L0.057,-0.254C0.057,-0.295 0.064,-0.331 0.078,-0.363C0.091,-0.394 0.11,-0.421 0.133,-0.443C0.156,-0.465 0.182,-0.482 0.212,-0.493C0.242,-0.504 0.273,-0.51 0.306,-0.51C0.339,-0.51 0.37,-0.504 0.4,-0.493C0.43,-0.482 0.456,-0.465 0.48,-0.443C0.503,-0.421 0.521,-0.394 0.535,-0.363C0.548,-0.331 0.555,-0.295 0.555,-0.254L0.555,-0.242ZM0.306,-0.06C0.33,-0.06 0.352,-0.064 0.373,-0.073C0.393,-0.081 0.411,-0.093 0.426,-0.109C0.441,-0.125 0.453,-0.144 0.462,-0.167C0.471,-0.189 0.475,-0.214 0.475,-0.242L0.475,-0.254C0.475,-0.281 0.471,-0.305 0.462,-0.328C0.453,-0.35 0.441,-0.369 0.426,-0.385C0.411,-0.401 0.393,-0.413 0.372,-0.423C0.351,-0.432 0.329,-0.436 0.306,-0.436C0.283,-0.436 0.261,-0.432 0.24,-0.423C0.219,-0.413 0.201,-0.401 0.186,-0.385C0.171,-0.369 0.159,-0.35 0.15,-0.328C0.141,-0.305 0.137,-0.281 0.137,-0.254L0.137,-0.242C0.137,-0.214 0.141,-0.189 0.15,-0.167C0.159,-0.144 0.171,-0.125 0.186,-0.109C0.201,-0.093 0.219,-0.081 0.24,-0.073C0.26,-0.064 0.282,-0.06 0.306,-0.06Z" style="fill:rgb(26,0,255);fill-rule:nonzero;"/>
                    </g>
                    <g transform="matrix(72.1718,0,0,226.411,171.046,242.427)">
                        <path d="M0.564,0L0.486,0L0.486,-0.356C0.486,-0.379 0.481,-0.399 0.47,-0.414C0.459,-0.429 0.442,-0.436 0.419,-0.436C0.397,-0.436 0.379,-0.428 0.366,-0.412C0.352,-0.395 0.345,-0.37 0.345,-0.336L0.345,0L0.267,0L0.267,-0.36C0.267,-0.382 0.261,-0.4 0.249,-0.415C0.237,-0.429 0.221,-0.436 0.201,-0.436C0.177,-0.436 0.159,-0.427 0.146,-0.41C0.132,-0.393 0.126,-0.37 0.126,-0.342L0.126,0L0.048,0L0.048,-0.496L0.126,-0.496L0.126,-0.442L0.138,-0.442C0.147,-0.465 0.159,-0.483 0.176,-0.494C0.193,-0.505 0.212,-0.51 0.235,-0.51C0.259,-0.51 0.279,-0.504 0.295,-0.491C0.31,-0.478 0.321,-0.462 0.327,-0.442L0.339,-0.442C0.362,-0.487 0.398,-0.51 0.447,-0.51C0.484,-0.51 0.513,-0.498 0.534,-0.475C0.554,-0.451 0.564,-0.42 0.564,-0.382L0.564,0Z" style="fill:rgb(26,0,255);fill-rule:nonzero;"/>
                    </g>
                    <g transform="matrix(72.1718,0,0,226.411,215.215,242.427)">
                        <path d="M0.241,-0.644C0.241,-0.663 0.248,-0.68 0.262,-0.694C0.275,-0.707 0.292,-0.714 0.311,-0.714C0.33,-0.714 0.347,-0.707 0.361,-0.694C0.374,-0.68 0.381,-0.663 0.381,-0.644C0.381,-0.625 0.374,-0.608 0.361,-0.595C0.347,-0.581 0.33,-0.574 0.311,-0.574C0.292,-0.574 0.275,-0.581 0.262,-0.595C0.248,-0.608 0.241,-0.625 0.241,-0.644ZM0.099,-0.072L0.273,-0.072L0.273,-0.424L0.117,-0.424L0.117,-0.496L0.351,-0.496L0.351,-0.072L0.513,-0.072L0.513,0L0.099,0L0.099,-0.072Z" style="fill:rgb(26,0,255);fill-rule:nonzero;"/>
                    </g>
                    <g transform="matrix(72.1718,0,0,226.411,259.384,242.427)">
                        <path d="M0.165,0L0.087,0L0.087,-0.496L0.165,-0.496L0.165,-0.412L0.177,-0.412C0.208,-0.477 0.261,-0.51 0.337,-0.51C0.394,-0.51 0.44,-0.492 0.474,-0.457C0.508,-0.421 0.525,-0.367 0.525,-0.296L0.525,0L0.447,0L0.447,-0.28C0.447,-0.332 0.435,-0.371 0.412,-0.397C0.389,-0.423 0.357,-0.436 0.317,-0.436C0.27,-0.436 0.233,-0.42 0.206,-0.388C0.179,-0.355 0.165,-0.312 0.165,-0.258L0.165,0Z" style="fill:rgb(26,0,255);fill-rule:nonzero;"/>
                    </g>
                    <g transform="matrix(72.1718,0,0,226.411,303.553,242.427)">
                        <path d="M0.464,-0.076L0.452,-0.076C0.436,-0.046 0.414,-0.024 0.387,-0.009C0.359,0.007 0.329,0.014 0.296,0.014C0.263,0.014 0.231,0.008 0.202,-0.003C0.173,-0.014 0.147,-0.031 0.125,-0.052C0.102,-0.073 0.085,-0.1 0.072,-0.132C0.059,-0.163 0.052,-0.199 0.052,-0.24L0.052,-0.256C0.052,-0.296 0.059,-0.332 0.072,-0.364C0.085,-0.395 0.103,-0.422 0.125,-0.444C0.147,-0.465 0.173,-0.482 0.202,-0.493C0.231,-0.504 0.262,-0.51 0.294,-0.51C0.33,-0.51 0.362,-0.502 0.389,-0.487C0.416,-0.471 0.437,-0.448 0.452,-0.418L0.464,-0.418L0.464,-0.496L0.542,-0.496L0.542,0.122C0.542,0.145 0.535,0.163 0.521,0.178C0.506,0.193 0.488,0.2 0.465,0.2L0.142,0.2L0.142,0.128L0.437,0.128C0.455,0.128 0.464,0.118 0.464,0.098L0.464,-0.076ZM0.298,-0.06C0.321,-0.06 0.343,-0.064 0.363,-0.073C0.383,-0.082 0.401,-0.094 0.416,-0.11C0.431,-0.126 0.442,-0.145 0.451,-0.168C0.46,-0.19 0.464,-0.215 0.464,-0.242L0.464,-0.254C0.464,-0.281 0.46,-0.305 0.451,-0.328C0.442,-0.35 0.431,-0.369 0.416,-0.385C0.401,-0.401 0.383,-0.413 0.363,-0.423C0.342,-0.432 0.321,-0.436 0.298,-0.436C0.275,-0.436 0.253,-0.432 0.233,-0.423C0.212,-0.414 0.195,-0.402 0.18,-0.386C0.165,-0.37 0.153,-0.351 0.145,-0.329C0.136,-0.307 0.132,-0.283 0.132,-0.256L0.132,-0.24C0.132,-0.212 0.136,-0.187 0.145,-0.165C0.153,-0.143 0.165,-0.124 0.18,-0.109C0.195,-0.093 0.212,-0.081 0.232,-0.073C0.252,-0.064 0.274,-0.06 0.298,-0.06Z" style="fill:rgb(26,0,255);fill-rule:nonzero;"/>
                    </g>
                    <g transform="matrix(72.1718,0,0,226.411,391.892,242.427)">
                        <path d="M0.19,-0.368C0.19,-0.344 0.2,-0.326 0.221,-0.313C0.241,-0.3 0.278,-0.292 0.332,-0.288C0.39,-0.283 0.434,-0.27 0.465,-0.247C0.495,-0.224 0.51,-0.19 0.51,-0.146L0.51,-0.14C0.51,-0.116 0.505,-0.095 0.496,-0.076C0.486,-0.056 0.472,-0.04 0.456,-0.027C0.439,-0.014 0.418,-0.004 0.394,0.004C0.369,0.011 0.343,0.014 0.314,0.014C0.275,0.014 0.242,0.009 0.215,-0.002C0.187,-0.012 0.164,-0.026 0.146,-0.043C0.127,-0.06 0.113,-0.079 0.104,-0.101C0.095,-0.122 0.089,-0.144 0.088,-0.166L0.162,-0.184C0.165,-0.146 0.18,-0.116 0.206,-0.093C0.232,-0.07 0.267,-0.058 0.31,-0.058C0.347,-0.058 0.376,-0.065 0.399,-0.08C0.421,-0.094 0.432,-0.114 0.432,-0.14C0.432,-0.168 0.421,-0.188 0.399,-0.2C0.377,-0.212 0.341,-0.22 0.292,-0.223C0.235,-0.227 0.191,-0.24 0.16,-0.263C0.129,-0.286 0.114,-0.319 0.114,-0.362L0.114,-0.368C0.114,-0.391 0.119,-0.412 0.129,-0.43C0.139,-0.447 0.153,-0.462 0.17,-0.474C0.187,-0.486 0.206,-0.495 0.227,-0.501C0.248,-0.507 0.271,-0.51 0.294,-0.51C0.327,-0.51 0.355,-0.505 0.38,-0.497C0.405,-0.488 0.425,-0.476 0.442,-0.462C0.459,-0.447 0.472,-0.431 0.481,-0.412C0.49,-0.393 0.495,-0.375 0.498,-0.356L0.424,-0.338C0.421,-0.37 0.408,-0.395 0.386,-0.413C0.363,-0.431 0.334,-0.44 0.298,-0.44C0.284,-0.44 0.271,-0.439 0.258,-0.436C0.245,-0.432 0.233,-0.428 0.223,-0.422C0.213,-0.416 0.205,-0.409 0.199,-0.4C0.193,-0.391 0.19,-0.38 0.19,-0.368Z" style="fill:rgb(26,0,255);fill-rule:nonzero;"/>
                    </g>
                    <g transform="matrix(72.1718,0,0,226.411,436.061,242.427)">
                        <path d="M0.555,-0.242C0.555,-0.201 0.548,-0.164 0.535,-0.133C0.521,-0.101 0.503,-0.074 0.48,-0.053C0.457,-0.031 0.431,-0.014 0.401,-0.003C0.37,0.008 0.339,0.014 0.306,0.014C0.273,0.014 0.241,0.008 0.211,-0.003C0.181,-0.014 0.155,-0.031 0.132,-0.053C0.109,-0.074 0.091,-0.101 0.078,-0.133C0.064,-0.164 0.057,-0.201 0.057,-0.242L0.057,-0.254C0.057,-0.295 0.064,-0.331 0.078,-0.363C0.091,-0.394 0.11,-0.421 0.133,-0.443C0.156,-0.465 0.182,-0.482 0.212,-0.493C0.242,-0.504 0.273,-0.51 0.306,-0.51C0.339,-0.51 0.37,-0.504 0.4,-0.493C0.43,-0.482 0.456,-0.465 0.48,-0.443C0.503,-0.421 0.521,-0.394 0.535,-0.363C0.548,-0.331 0.555,-0.295 0.555,-0.254L0.555,-0.242ZM0.306,-0.06C0.33,-0.06 0.352,-0.064 0.373,-0.073C0.393,-0.081 0.411,-0.093 0.426,-0.109C0.441,-0.125 0.453,-0.144 0.462,-0.167C0.471,-0.189 0.475,-0.214 0.475,-0.242L0.475,-0.254C0.475,-0.281 0.471,-0.305 0.462,-0.328C0.453,-0.35 0.441,-0.369 0.426,-0.385C0.411,-0.401 0.393,-0.413 0.372,-0.423C0.351,-0.432 0.329,-0.436 0.306,-0.436C0.283,-0.436 0.261,-0.432 0.24,-0.423C0.219,-0.413 0.201,-0.401 0.186,-0.385C0.171,-0.369 0.159,-0.35 0.15,-0.328C0.141,-0.305 0.137,-0.281 0.137,-0.254L0.137,-0.242C0.137,-0.214 0.141,-0.189 0.15,-0.167C0.159,-0.144 0.171,-0.125 0.186,-0.109C0.201,-0.093 0.219,-0.081 0.24,-0.073C0.26,-0.064 0.282,-0.06 0.306,-0.06Z" style="fill:rgb(26,0,255);fill-rule:nonzero;"/>
                    </g>
                    <g transform="matrix(72.1718,0,0,226.411,480.23,242.427)">
                        <path d="M0.555,-0.242C0.555,-0.201 0.548,-0.164 0.535,-0.133C0.521,-0.101 0.503,-0.074 0.48,-0.053C0.457,-0.031 0.431,-0.014 0.401,-0.003C0.37,0.008 0.339,0.014 0.306,0.014C0.273,0.014 0.241,0.008 0.211,-0.003C0.181,-0.014 0.155,-0.031 0.132,-0.053C0.109,-0.074 0.091,-0.101 0.078,-0.133C0.064,-0.164 0.057,-0.201 0.057,-0.242L0.057,-0.254C0.057,-0.295 0.064,-0.331 0.078,-0.363C0.091,-0.394 0.11,-0.421 0.133,-0.443C0.156,-0.465 0.182,-0.482 0.212,-0.493C0.242,-0.504 0.273,-0.51 0.306,-0.51C0.339,-0.51 0.37,-0.504 0.4,-0.493C0.43,-0.482 0.456,-0.465 0.48,-0.443C0.503,-0.421 0.521,-0.394 0.535,-0.363C0.548,-0.331 0.555,-0.295 0.555,-0.254L0.555,-0.242ZM0.306,-0.06C0.33,-0.06 0.352,-0.064 0.373,-0.073C0.393,-0.081 0.411,-0.093 0.426,-0.109C0.441,-0.125 0.453,-0.144 0.462,-0.167C0.471,-0.189 0.475,-0.214 0.475,-0.242L0.475,-0.254C0.475,-0.281 0.471,-0.305 0.462,-0.328C0.453,-0.35 0.441,-0.369 0.426,-0.385C0.411,-0.401 0.393,-0.413 0.372,-0.423C0.351,-0.432 0.329,-0.436 0.306,-0.436C0.283,-0.436 0.261,-0.432 0.24,-0.423C0.219,-0.413 0.201,-0.401 0.186,-0.385C0.171,-0.369 0.159,-0.35 0.15,-0.328C0.141,-0.305 0.137,-0.281 0.137,-0.254L0.137,-0.242C0.137,-0.214 0.141,-0.189 0.15,-0.167C0.159,-0.144 0.171,-0.125 0.186,-0.109C0.201,-0.093 0.219,-0.081 0.24,-0.073C0.26,-0.064 0.282,-0.06 0.306,-0.06Z" style="fill:rgb(26,0,255);fill-rule:nonzero;"/>
                    </g>
                    <g transform="matrix(72.1718,0,0,226.411,524.399,242.427)">
                        <path d="M0.165,0L0.087,0L0.087,-0.496L0.165,-0.496L0.165,-0.412L0.177,-0.412C0.208,-0.477 0.261,-0.51 0.337,-0.51C0.394,-0.51 0.44,-0.492 0.474,-0.457C0.508,-0.421 0.525,-0.367 0.525,-0.296L0.525,0L0.447,0L0.447,-0.28C0.447,-0.332 0.435,-0.371 0.412,-0.397C0.389,-0.423 0.357,-0.436 0.317,-0.436C0.27,-0.436 0.233,-0.42 0.206,-0.388C0.179,-0.355 0.165,-0.312 0.165,-0.258L0.165,0Z" style="fill:rgb(26,0,255);fill-rule:nonzero;"/>
                    </g>
                    <g transform="matrix(72.1718,0,0,226.411,568.568,242.427)">
                        <path d="M0.236,-0.056C0.236,-0.075 0.243,-0.092 0.257,-0.106C0.27,-0.119 0.287,-0.126 0.306,-0.126C0.325,-0.126 0.342,-0.119 0.356,-0.106C0.369,-0.092 0.376,-0.075 0.376,-0.056C0.376,-0.037 0.369,-0.02 0.356,-0.007C0.342,0.007 0.325,0.014 0.306,0.014C0.287,0.014 0.27,0.007 0.257,-0.007C0.243,-0.02 0.236,-0.037 0.236,-0.056Z" style="fill:rgb(26,0,255);fill-rule:nonzero;"/>
                    </g>
                </g>
            </g>
        </g>
    </g>
</svg>
