<svg viewBox="0 0 1164 317" xmlns="http://www.w3.org/2000/svg" fill-rule="evenodd" clip-rule="evenodd" stroke-linejoin="round" stroke-miterlimit="2"><g transform="matrix(.35853 0 0 .12877 -5301.16 -1692.3)"><path fill="none" d="M14785.9 13142.6h3245.62v2458.6H14785.9z"/><clipPath id="a"><path d="M14785.9 13142.6h3245.62v2458.6H14785.9z"/></clipPath><g clip-path="url(#a)"><path d="M15020.668 13142.14l6.777 15.096 23.718 205.669 23.041-205.67v-1.886h.678v-3.774h.677v-1.887l.678-1.887h.678v-1.887h.678v-1.887h1.355v-1.886H15245.656l6.776 15.095 62.346 603.799V14336.53l-.677 1.887v3.774h-.678v1.886h-.678v1.887h-.677v1.887h-1.356l-.677 1.887H15115.542v-1.887h-1.355v-1.887h-.678v-1.887h-.677v-1.886h-.678v-3.774l-.678-1.887v-177.366l-2.033-333.977h-7.454l-1.356 503.795v5.661h-.677v3.774h-.678v1.887h-.678v1.887h-.677v1.886h-1.356l-.677 1.887h-89.453l-.678-1.887h-1.355v-1.886h-.678v-1.887h-.678v-1.887h-.677v-3.774h-.678v-5.661l-1.355-503.795h-8.132l-1.356 333.977v177.366l-.677 1.887v3.774h-.678v1.886h-.678v1.887h-.677v1.887h-1.356l-.677 1.887H14792.292l-.678-1.887h-1.355v-1.887h-.678v-1.887h-.678v-1.886h-.677v-3.774l-.678-1.887v-575.496l61.668-603.8v-1.886h.678v-3.774h.678v-1.887h.677v-1.887h.678v-1.887h.678v-1.887h1.355l.678-1.886h166.03zm-163.997 15.096h-.678v1.886h-.678l-.677 1.887v1.887l-61.669 600.026v567.948l1.356 3.774h190.426v-1.887h.678v-173.592l1.355-333.977v-5.66l.678-1.887.678-1.887.677-1.887.678-1.887.678-1.887h10.843l2.71 3.774 2.033 5.66v5.661l1.355 503.795 1.356 1.887H15094.534v-1.887h.678l1.355-503.795v-5.66l.678-1.887.678-1.887.677-1.887.678-1.887.678-1.887h10.165l2.71 3.774 2.034 5.66v5.661l2.033 333.977v173.592l.677 1.887H15308.68v-1.887h.678V13762.922l-62.346-601.913v-1.887h-.678v-1.886H15080.303v1.886h-.677v3.774l-23.041 203.782-.678 3.774-.678 1.887-.677 1.887-.678 1.887-.678 1.887H15049.13l-.677-1.887-.678-1.887-.678-1.887-.677-1.887-.678-1.887-23.719-205.669v-5.66h-165.352zm223.632 0zm-58.957 0zM15520.109 13142.14l6.776 15.096V13587.443l4.744 18.868 4.744-18.868V13155.349l.678-1.887v-3.774h.677v-1.887h.678v-1.887h.678v-1.887h1.355l.678-1.886H15733.576l6.777 15.095v575.496l-107.073 360.392v243.407l-.677 1.887v3.774h-.678v1.886h-.678v1.887h-.677v1.887h-1.356v1.887H15434.722l-.678-1.887h-1.355v-1.887h-.678v-1.887h-.678v-1.886h-.677v-3.774l-.678-1.887v-243.407l-107.072-360.392V13155.349l.677-1.887v-3.774h.678v-1.887h.678v-1.887h.677v-1.887h1.356l.677-1.886H15520.11zm-190.427 15.096h-.677v1.886h-.678v567.949l105.717 356.619 1.355 7.547v239.633l1.356 3.774h190.426v-1.887h.678v-245.293l.677-1.887.678-1.887 105.717-356.619v-567.949h-.677v-1.886H15542.472v1.886h-.678V13591.216l-.677 3.774v1.887l-4.744 18.869-.678 1.886-.678 1.887h-1.355l-.678 1.887H15530.274l-.678-1.887h-1.355l-.678-1.887-.678-1.886-4.743-18.87v-1.886l-.678-3.774V13159.122h-.678v-1.886H15329.682z"/><path d="M16141.539 14330.87v-420.772c0-11.322-2.71-20.756-6.777-20.756h-67.767l-77.933 128.307h-11.52l163.997-298.125v-313.221c0-169.819-33.884-264.162-94.874-264.162h-200.592c-60.99 0-94.874 94.343-94.874 264.162v177.366c0 9.434 2.71 18.869 6.776 18.869h68.446l77.254-128.308h11.52l-162.64 290.579v566.061c0 11.322 2.71 18.869 6.776 18.869h375.431c4.066 0 6.777-7.547 6.777-18.869zM16474.973 13142.14h-227.699c-60.99 0-94.874 94.344-94.874 264.163v679.274c0 169.818 33.884 264.162 94.874 264.162h227.699c60.99 0 94.874-94.344 94.874-264.162v-679.274c0-169.819-33.884-264.162-94.874-264.162zm-109.106 332.09v184.914l-9.487 64.153v-249.067h9.487zm-9.487 543.42v-207.557l9.487-64.153v271.71h-9.487zM16956.125 13896.89h-69.8v-735.88c0-11.322-2.712-18.87-6.1-18.87h-257.516c-3.388 0-6.1 7.548-6.1 18.87v422.659c0 11.321 2.712 18.869 6.1 18.869h60.313v294.352h-95.552c-4.066 0-6.777 7.547-6.777 18.868v415.112c0 11.322 2.71 18.869 6.777 18.869h368.655c3.388 0 6.099-7.547 6.099-18.869v-415.112c0-11.32-2.711-18.868-6.1-18.868zM17295.521 13142.14h-227.698c-60.991 0-94.875 94.344-94.875 264.163v200.008c0 169.819 33.884 264.162 94.875 264.162h118.592v147.176h-9.487v-101.89c0-11.322-2.71-18.87-6.777-18.87h-190.426c-4.066 0-6.777 7.548-6.777 18.87v169.818c0 169.818 33.884 264.162 94.875 264.162h227.698c60.99 0 94.874-94.344 94.874-264.162v-679.274c0-169.819-33.883-264.162-94.874-264.162zm-118.593 471.719v-139.629h9.487v139.629h-9.487z" fill-rule="nonzero"/><path d="M17597.948 13142.14l6.777 15.096V14336.53l-.678 1.887v3.774h-.678v1.886h-.677v1.887h-.678v1.887h-1.355l-.678 1.887H17406.166l-.677-1.887h-1.356v-1.887h-.677v-1.887h-.678v-1.886h-.678v-3.774l-.678-1.887V13155.349l.678-1.887v-3.774h.678v-1.887h.678v-1.887h.677v-1.887h1.356l.677-1.886H17597.948zm-189.749 15.096h-.677v1.886h-.678v1171.748l1.355 3.774h190.427v-1.887h.677V13159.122h-.677v-1.886h-190.427zM17787.608 13142.14l7.454 13.209 79.288 409.451h8.132l-41.338-233.972V13155.349l.678-1.887v-3.774h.677v-1.887h.678v-1.887h.678v-1.887h1.355v-1.886h179.583l6.777 15.095V14336.53l-.677 1.887v3.774h-.678v1.886h-.678v1.887h-.677v1.887h-1.356l-.677 1.887H17856.053v-1.887h-1.356v-1.887h-.677l-.678-1.887-.678-1.886-.677-1.887v-1.887l-.678-1.887-81.32-420.773h-7.455l42.693 245.294v175.479l-.677 1.887v3.774h-.678v1.886h-.678v1.887h-.677v1.887h-1.356l-.677 1.887H17620.222l-.677-1.887h-1.356v-1.887h-.677v-1.887h-.678v-1.886h-.678v-3.774l-.677-1.887V13155.349l.677-1.887v-3.774h.678v-1.887h.678v-1.887h.677v-1.887h1.356l.677-1.886h167.386zm-165.353 15.096h-.677v1.886h-.678v1171.748l1.355 3.774h176.873v-1.887h.678v-167.931l-42.016-241.52-.678-3.774V13910.098l.678-1.887.678-1.887.677-1.887.678-1.887.678-1.887h10.165l3.388 3.774.678 3.774 81.32 420.772 2.712 5.661h166.707v-1.887h.678V13159.122h-.678v-1.886h-178.227v1.886h-.679v167.932l40.66 230.199.678 7.547v5.661l-.677 1.887-.678 1.886-.678 1.887-.677 1.887-.678 1.887h-11.52l-1.356-1.887h-.677l-.678-1.887-.678-1.887v-1.886l-79.288-409.452-.677-1.887v-1.887h-1.356v-1.886h-166.03z"/><path d="M15204.995 14789.999v-145.29c0-169.818-33.883-264.161-94.874-264.161h-315.796c-4.066 0-6.777 7.547-6.777 18.868v1169.861c0 11.321 2.71 18.869 6.777 18.869h190.426c4.066 0 6.777-7.548 6.777-18.869v-392.47l9.487 30.19v362.28c0 11.321 2.711 18.869 6.777 18.869h190.426c4.067 0 6.777-7.548 6.777-18.869v-445.302l-45.404-122.646c27.785-39.625 45.404-103.778 45.404-211.33zm-203.98 115.1h-9.487v-192.462h9.487v192.461zM15222.618 15588.146h350.357c4.067 0 6.777-7.548 6.777-18.869V15163.6c0-9.435-2.71-16.982-6.777-16.982h-153.832v-28.303h153.832c4.067 0 6.777-7.548 6.777-16.982v-215.104c0-11.32-2.71-18.868-6.777-18.868h-153.832v-26.417h153.832c4.067 0 6.777-7.547 6.777-18.868v-422.66c0-11.321-2.71-18.868-6.777-18.868h-350.357c-4.066 0-6.777 7.547-6.777 18.868v1169.861c0 11.321 2.711 18.869 6.777 18.869zM16001.273 14380.548h-189.749c-4.066 0-6.777 7.547-6.777 18.868v496.248l-1.355 360.392h-8.132l-1.355-360.392v-496.248c0-11.321-2.711-18.868-6.777-18.868h-189.749c-4.066 0-6.777 7.547-6.777 18.868v433.981l86.743 739.654c1.355 9.434 3.388 15.095 6.776 15.095h230.41c3.388 0 5.42-5.66 6.776-15.095l86.743-739.654v-433.98c0-11.322-2.711-18.87-6.777-18.87zM16018.896 14399.416v1169.861c0 11.321 2.71 18.869 6.776 18.869h189.749c4.066 0 6.777-7.548 6.777-18.869v-1169.86c0-11.322-2.71-18.87-6.777-18.87h-189.749c-4.066 0-6.776 7.548-6.776 18.87zM16239.8 15588.146h350.358c4.066 0 6.777-7.548 6.777-18.869V15163.6c0-9.435-2.71-16.982-6.777-16.982h-153.832v-28.303h153.832c4.066 0 6.777-7.548 6.777-16.982v-215.104c0-11.32-2.71-18.868-6.777-18.868h-153.832v-26.417h153.832c4.066 0 6.777-7.547 6.777-18.868v-422.66c0-11.321-2.71-18.868-6.777-18.868h-350.357c-4.066 0-6.777 7.547-6.777 18.868v1169.861c0 11.321 2.71 18.869 6.777 18.869zM16607.858 14969.252l61.668 603.799c1.355 9.434 4.066 15.095 7.454 15.095h163.997c4.067 0 6.1-5.66 6.777-15.095l23.719-205.67 23.04 205.67c1.356 9.434 3.39 15.095 7.455 15.095h163.32c4.066 0 6.776-5.66 7.454-15.095l62.346-603.8v-569.835c0-11.321-2.71-18.868-6.777-18.868h-190.426c-3.389 0-6.1 7.547-6.1 18.868v458.51l-2.032 215.104h-7.455l-1.355-658.519c0-9.434-2.71-16.982-6.777-16.982h-85.387c-4.066 0-6.776 7.548-6.776 16.982l-1.356 658.519h-8.132l-1.355-215.104v-458.51c0-11.321-2.71-18.868-6.777-18.868h-189.749c-4.066 0-6.776 7.547-6.776 18.868v569.836z" fill-rule="nonzero"/></g></g></svg>