<?xml version="1.0" encoding="UTF-8" standalone="no"?>
<!DOCTYPE svg PUBLIC "-//W3C//DTD SVG 1.1//EN" "http://www.w3.org/Graphics/SVG/1.1/DTD/svg11.dtd">
<svg width="100%" height="100%" viewBox="0 0 261 261" version="1.1" xmlns="http://www.w3.org/2000/svg" xmlns:xlink="http://www.w3.org/1999/xlink" xml:space="preserve" style="fill-rule:evenodd;clip-rule:evenodd;stroke-linejoin:round;stroke-miterlimit:1.41421;">
    <g transform="matrix(0.7584,0,0,0.7584,-5139.19,1.43456e-12)">
        <path d="M6776.36,0L7120.51,0L7120.51,344.146C7120.51,344.146 7102.44,344.146 7102.44,344.146C7102.44,344.146 7066.42,344.146 7066.42,344.146L7048.36,344.146L6848.54,344.146C6848.54,344.146 6830.47,344.146 6830.47,344.146C6830.47,344.146 6776.36,344.146 6776.36,344.146L6776.36,0ZM6939.4,18.066L6794.43,18.066L6794.43,326.08L6830.47,326.08L6830.47,53.993L6848.54,53.993L6848.54,54.117L6903.4,54.117L6903.4,271.963L6993.7,271.963L6993.7,53.993L7011.77,53.993L7011.77,54.117L7048.36,54.117L7048.36,53.993L7066.42,53.993L7066.42,326.08L7102.44,326.08L7102.44,18.066L6957.47,18.066L6957.47,235.442L6939.4,235.442L6939.4,18.066ZM6885.34,271.963L6885.34,72.183L6848.54,72.183L6848.54,326.08L7048.36,326.08L7048.36,72.183L7011.77,72.183L7011.77,290.029L6885.34,290.029L6885.34,271.963Z"/>
    </g>
</svg>
