<?xml version="1.0" encoding="UTF-8" standalone="no"?><!DOCTYPE svg PUBLIC "-//W3C//DTD SVG 1.1//EN" "http://www.w3.org/Graphics/SVG/1.1/DTD/svg11.dtd"><svg width="100%" height="100%" viewBox="0 0 54 54" version="1.1" xmlns="http://www.w3.org/2000/svg" xmlns:xlink="http://www.w3.org/1999/xlink" xml:space="preserve" xmlns:serif="http://www.serif.com/" style="fill-rule:evenodd;clip-rule:evenodd;stroke-linejoin:round;stroke-miterlimit:1.41421;"><g id="Prancheta5"><rect x="-0.003" y="0" width="53.557" height="53.55" style="fill:none;"/><path d="M-0.003,0l53.548,0l0,53.547l-2.812,0l-5.604,0l-2.81,0l-31.091,0l-2.812,0l-8.419,0l0,-53.547Zm25.368,2.811l-22.556,0l0,47.926l5.607,0l0,-42.336l2.812,0l0,0.019l8.536,0l0,33.896l14.05,0l0,-33.915l2.812,0l0,0.019l5.693,0l0,-0.019l2.81,0l0,42.336l5.604,0l0,-47.926l-22.556,0l0,33.823l-2.812,0l0,-33.823Zm-8.411,39.505l0,-31.085l-5.726,0l0,39.506l31.091,0l0,-39.506l-5.693,0l0,33.896l-19.672,0l0,-2.811Z" style="fill:#fff;"/></g></svg>