<?xml version="1.0" encoding="UTF-8" standalone="no"?><!DOCTYPE svg PUBLIC "-//W3C//DTD SVG 1.1//EN" "http://www.w3.org/Graphics/SVG/1.1/DTD/svg11.dtd"><svg width="100%" height="100%" viewBox="0 0 446 446" version="1.1" xmlns="http://www.w3.org/2000/svg" xmlns:xlink="http://www.w3.org/1999/xlink" xml:space="preserve" xmlns:serif="http://www.serif.com/" style="fill-rule:evenodd;clip-rule:evenodd;stroke-linecap:square;stroke-miterlimit:1.41421;"><g id="Prancheta8"><rect x="-0.004" y="-0.001" width="445.096" height="445.074" style="fill:none;"/><path d="M0.012,-0.001l444.78,0l0,445.075l-23.353,0l-46.553,0l-23.341,0l-258.247,0l-23.354,0l-69.932,0l0,-445.075Zm210.713,23.364l-187.359,0l0,398.347l46.578,0l0,-351.883l23.354,0l0,0.16l70.901,0l0,281.735l116.704,0l0,-281.895l23.353,0l0,0.16l47.289,0l0,-0.16l23.341,0l0,351.883l46.553,0l0,-398.347l-187.36,0l0,281.127l-23.354,0l0,-281.127Zm-69.867,328.359l0,-258.371l-47.56,0l0,328.359l258.247,0l0,-328.359l-47.289,0l0,281.735l-163.398,0l0,-23.364Z" style="fill:none;stroke:#343434;stroke-width:2px;"/></g></svg>